<svg width="213" height="64" viewBox="0 0 213 64" fill="none" xmlns="http://www.w3.org/2000/svg">
<g clip-path="url(#clip0_389_135077)">
<rect width="213" height="64" rx="10" fill="white"/>
<path d="M68.377 47.811L75.627 27.917H79.281L86.357 47.811H82.674L80.876 42.765H73.481L71.683 47.811H68.377ZM77.106 32.151L74.322 40.097H79.977L77.193 32.151H77.106ZM88.8333 52.132V32.876H92.0523V34.152H92.1683C93.0673 33.253 94.6043 32.615 96.4893 32.615C99.5923 32.615 102.405 34.413 102.405 39.894V40.271C102.405 45.868 99.7083 48.072 95.6483 48.072C93.9953 48.072 92.8933 47.637 92.1683 47.231V52.132H88.8333ZM95.1843 45.549C97.5623 45.549 98.9253 44.331 98.9253 40.706V40.097C98.9253 36.414 97.6493 35.341 95.3003 35.341C93.8793 35.341 92.7483 35.805 92.1683 36.211V44.679C92.7483 45.143 93.8793 45.549 95.1843 45.549ZM105.571 52.132V32.876H108.79V34.152H108.906C109.805 33.253 111.342 32.615 113.227 32.615C116.33 32.615 119.143 34.413 119.143 39.894V40.271C119.143 45.868 116.446 48.072 112.386 48.072C110.733 48.072 109.631 47.637 108.906 47.231V52.132H105.571ZM111.922 45.549C114.3 45.549 115.663 44.331 115.663 40.706V40.097C115.663 36.414 114.387 35.341 112.038 35.341C110.617 35.341 109.486 35.805 108.906 36.211V44.679C109.486 45.143 110.617 45.549 111.922 45.549ZM135.03 48.159C132.42 48.159 130.448 47.608 129.085 46.883V44.07C130.68 44.766 132.565 45.288 134.74 45.288C137.408 45.288 138.539 44.186 138.539 42.388C138.539 40.735 137.814 40.097 135.639 39.43L133.754 38.908C130.941 38.125 129.23 36.617 129.23 33.253C129.23 29.889 131.405 27.598 135.9 27.598C138.51 27.598 139.931 28.091 141.033 28.671V31.455C139.786 30.933 138.162 30.469 135.958 30.469C133.87 30.469 132.71 31.339 132.71 32.934C132.71 34.5 133.29 35.167 135.262 35.718L137.118 36.298C140.25 37.197 142.135 38.502 142.135 42.04C142.135 45.81 139.844 48.159 135.03 48.159ZM150.465 47.985C147.884 47.985 146.231 46.941 146.231 44.128V35.486H144.143V32.876H146.231V29.367H149.508V32.876H153.075V35.486H149.508V43.664C149.508 44.911 149.972 45.375 151.538 45.375C152.118 45.375 152.727 45.288 153.249 45.143V47.376C152.669 47.666 151.857 47.985 150.465 47.985ZM162.527 48.072C157.974 48.072 155.451 45.317 155.451 40.648V40.184C155.451 35.399 158.351 32.615 162.556 32.615C167.022 32.615 169.603 35.341 169.603 40.097V40.503C169.603 45.317 166.703 48.072 162.527 48.072ZM162.585 45.549C164.818 45.549 166.123 44.012 166.123 40.793V40.068C166.123 36.182 164.528 35.138 162.498 35.138C160.207 35.138 158.873 36.733 158.873 39.952V40.648C158.873 44.505 160.497 45.549 162.585 45.549ZM172.69 47.811V32.876H175.909V34.616H176.025C176.837 33.543 178.374 32.76 179.94 32.76C180.346 32.76 180.723 32.789 180.868 32.847V35.805C180.491 35.747 179.998 35.718 179.65 35.718C178.316 35.718 176.982 36.095 176.025 36.704V47.811H172.69ZM190.175 48.072C185.216 48.072 182.78 45.259 182.78 40.532V40.126C182.78 35.109 185.825 32.644 189.624 32.644C194.032 32.644 195.946 35.109 195.946 39.865V41.257H186.202C186.405 44.36 188 45.462 190.842 45.462C192.756 45.462 194.148 45.027 195.453 44.36V46.68C194.438 47.347 192.698 48.072 190.175 48.072ZM189.566 35.109C188.029 35.109 186.434 35.921 186.202 38.966H192.553C192.553 36.153 191.509 35.109 189.566 35.109Z" fill="black"/>
<path fill-rule="evenodd" clip-rule="evenodd" d="M42.3212 11C40.2061 11.0884 37.6432 12.4046 36.1263 14.1742C34.7628 15.7457 33.5725 18.2538 33.8934 20.6586C36.2549 20.8428 38.6612 19.4636 40.1311 17.6931C41.5981 15.9195 42.5914 13.458 42.3212 11ZM41.7233 52.8516C44.5892 52.7984 46.4043 50.2594 48.159 47.7047C50.0818 44.9063 50.9309 42.1932 51.0575 41.7886C51.0645 41.7661 51.0693 41.7507 51.072 41.7429C51.0706 41.7423 51.0671 41.7409 51.0614 41.7385C50.7857 41.6269 45.4813 39.4785 45.4285 33.2685C45.3767 28.1402 49.4821 25.5892 49.9341 25.3083C49.9498 25.2985 49.9611 25.2915 49.9676 25.2872C47.4966 21.6874 43.6489 21.1938 42.2779 21.1374C40.2753 20.9357 38.3325 21.6983 36.7451 22.3213C35.7363 22.7172 34.8711 23.0568 34.2253 23.0568C33.5065 23.0568 32.6176 22.7054 31.6199 22.311C30.3142 21.7947 28.8223 21.2049 27.282 21.2331C23.7145 21.2863 20.4223 23.3015 18.5851 26.4864C14.8749 32.8995 17.6336 42.4025 21.2481 47.6024C23.0173 50.1456 25.121 53.0079 27.8877 52.9048C29.123 52.8555 30.0022 52.4826 30.9114 52.0969C31.9621 51.6512 33.053 51.1884 34.7803 51.1884C36.4253 51.1884 37.4658 51.6369 38.4665 52.0682C39.4237 52.4807 40.3445 52.8776 41.7233 52.8516Z" fill="black"/>
<path d="M73.0513 22H70.8247L70.8394 20.8501H73.0513C73.813 20.8501 74.4478 20.6914 74.9556 20.374C75.4634 20.0518 75.8442 19.6025 76.0981 19.0264C76.3569 18.4453 76.4863 17.7666 76.4863 16.9902V16.3384C76.4863 15.728 76.4131 15.186 76.2666 14.7124C76.1201 14.2339 75.9053 13.8311 75.6221 13.5039C75.3389 13.1719 74.9922 12.9204 74.582 12.7495C74.1768 12.5786 73.7104 12.4932 73.1831 12.4932H70.7808V11.3359H73.1831C73.8813 11.3359 74.5186 11.4531 75.0947 11.6875C75.6709 11.917 76.1665 12.2515 76.5815 12.6909C77.0015 13.1255 77.3237 13.6528 77.5483 14.2729C77.7729 14.8882 77.8853 15.5815 77.8853 16.353V16.9902C77.8853 17.7617 77.7729 18.4575 77.5483 19.0776C77.3237 19.6929 76.999 20.2178 76.5742 20.6523C76.1543 21.0869 75.6465 21.4214 75.0508 21.6558C74.46 21.8853 73.7935 22 73.0513 22ZM71.5791 11.3359V22H70.1655V11.3359H71.5791ZM80.6453 18.1255V17.957C80.6453 17.3857 80.7283 16.856 80.8943 16.3677C81.0604 15.8745 81.2996 15.4473 81.6121 15.0859C81.9246 14.7197 82.303 14.4365 82.7474 14.2363C83.1917 14.0312 83.6897 13.9287 84.2415 13.9287C84.7981 13.9287 85.2986 14.0312 85.743 14.2363C86.1922 14.4365 86.573 14.7197 86.8855 15.0859C87.2029 15.4473 87.4446 15.8745 87.6106 16.3677C87.7767 16.856 87.8597 17.3857 87.8597 17.957V18.1255C87.8597 18.6968 87.7767 19.2266 87.6106 19.7148C87.4446 20.2031 87.2029 20.6304 86.8855 20.9966C86.573 21.3579 86.1946 21.6411 85.7503 21.8462C85.3108 22.0464 84.8128 22.1465 84.2562 22.1465C83.6995 22.1465 83.199 22.0464 82.7547 21.8462C82.3104 21.6411 81.9295 21.3579 81.6121 20.9966C81.2996 20.6304 81.0604 20.2031 80.8943 19.7148C80.7283 19.2266 80.6453 18.6968 80.6453 18.1255ZM82.0003 17.957V18.1255C82.0003 18.521 82.0467 18.8945 82.1395 19.2461C82.2322 19.5928 82.3714 19.9004 82.5569 20.1689C82.7474 20.4375 82.9842 20.6499 83.2674 20.8062C83.5506 20.9575 83.8802 21.0332 84.2562 21.0332C84.6272 21.0332 84.952 20.9575 85.2303 20.8062C85.5135 20.6499 85.7479 20.4375 85.9334 20.1689C86.1189 19.9004 86.2581 19.5928 86.3509 19.2461C86.4485 18.8945 86.4974 18.521 86.4974 18.1255V17.957C86.4974 17.5664 86.4485 17.1978 86.3509 16.8511C86.2581 16.4995 86.1165 16.1895 85.9261 15.9209C85.7405 15.6475 85.5062 15.4326 85.2229 15.2764C84.9446 15.1201 84.6175 15.042 84.2415 15.042C83.8704 15.042 83.5433 15.1201 83.2601 15.2764C82.9817 15.4326 82.7474 15.6475 82.5569 15.9209C82.3714 16.1895 82.2322 16.4995 82.1395 16.8511C82.0467 17.1978 82.0003 17.5664 82.0003 17.957ZM92.7657 20.5938L94.8019 14.0752H95.6954L95.5196 15.3716L93.4469 22H92.5753L92.7657 20.5938ZM91.3961 14.0752L93.1319 20.667L93.2564 22H92.3409L90.0411 14.0752H91.3961ZM97.6437 20.6157L99.2989 14.0752H100.647L98.3468 22H97.4386L97.6437 20.6157ZM95.8932 14.0752L97.8854 20.4839L98.1124 22H97.2481L95.1168 15.3569L94.941 14.0752H95.8932ZM104.593 15.7671V22H103.238V14.0752H104.52L104.593 15.7671ZM104.271 17.7373L103.707 17.7153C103.712 17.1733 103.792 16.6729 103.949 16.2139C104.105 15.75 104.325 15.3472 104.608 15.0054C104.891 14.6636 105.228 14.3999 105.619 14.2144C106.014 14.0239 106.451 13.9287 106.93 13.9287C107.32 13.9287 107.672 13.9824 107.984 14.0898C108.297 14.1924 108.563 14.3584 108.783 14.5879C109.007 14.8174 109.178 15.1152 109.295 15.4814C109.412 15.8428 109.471 16.2847 109.471 16.8071V22H108.109V16.7925C108.109 16.3774 108.048 16.0454 107.926 15.7964C107.804 15.5425 107.625 15.3594 107.391 15.2471C107.157 15.1299 106.869 15.0713 106.527 15.0713C106.19 15.0713 105.882 15.1421 105.604 15.2837C105.33 15.4253 105.094 15.6206 104.893 15.8696C104.698 16.1187 104.544 16.4043 104.432 16.7266C104.325 17.0439 104.271 17.3809 104.271 17.7373ZM114.201 10.75V22H112.839V10.75H114.201ZM117.218 18.1255V17.957C117.218 17.3857 117.301 16.856 117.467 16.3677C117.633 15.8745 117.872 15.4473 118.185 15.0859C118.497 14.7197 118.875 14.4365 119.32 14.2363C119.764 14.0312 120.262 13.9287 120.814 13.9287C121.371 13.9287 121.871 14.0312 122.315 14.2363C122.765 14.4365 123.146 14.7197 123.458 15.0859C123.775 15.4473 124.017 15.8745 124.183 16.3677C124.349 16.856 124.432 17.3857 124.432 17.957V18.1255C124.432 18.6968 124.349 19.2266 124.183 19.7148C124.017 20.2031 123.775 20.6304 123.458 20.9966C123.146 21.3579 122.767 21.6411 122.323 21.8462C121.883 22.0464 121.385 22.1465 120.829 22.1465C120.272 22.1465 119.771 22.0464 119.327 21.8462C118.883 21.6411 118.502 21.3579 118.185 20.9966C117.872 20.6304 117.633 20.2031 117.467 19.7148C117.301 19.2266 117.218 18.6968 117.218 18.1255ZM118.573 17.957V18.1255C118.573 18.521 118.619 18.8945 118.712 19.2461C118.805 19.5928 118.944 19.9004 119.129 20.1689C119.32 20.4375 119.557 20.6499 119.84 20.8062C120.123 20.9575 120.453 21.0332 120.829 21.0332C121.2 21.0332 121.524 20.9575 121.803 20.8062C122.086 20.6499 122.32 20.4375 122.506 20.1689C122.691 19.9004 122.831 19.5928 122.923 19.2461C123.021 18.8945 123.07 18.521 123.07 18.1255V17.957C123.07 17.5664 123.021 17.1978 122.923 16.8511C122.831 16.4995 122.689 16.1895 122.499 15.9209C122.313 15.6475 122.079 15.4326 121.795 15.2764C121.517 15.1201 121.19 15.042 120.814 15.042C120.443 15.042 120.116 15.1201 119.833 15.2764C119.554 15.4326 119.32 15.6475 119.129 15.9209C118.944 16.1895 118.805 16.4995 118.712 16.8511C118.619 17.1978 118.573 17.5664 118.573 17.957ZM132.004 20.645V16.5654C132.004 16.2529 131.941 15.9819 131.814 15.7524C131.692 15.5181 131.506 15.3374 131.257 15.2104C131.008 15.0835 130.7 15.02 130.334 15.02C129.992 15.02 129.692 15.0786 129.433 15.1958C129.179 15.313 128.979 15.4668 128.833 15.6572C128.691 15.8477 128.62 16.0527 128.62 16.2725H127.265C127.265 15.9893 127.339 15.7085 127.485 15.4302C127.632 15.1519 127.842 14.9004 128.115 14.6758C128.393 14.4463 128.725 14.2656 129.111 14.1338C129.502 13.9971 129.936 13.9287 130.415 13.9287C130.991 13.9287 131.499 14.0264 131.938 14.2217C132.383 14.417 132.729 14.7124 132.978 15.1079C133.232 15.4985 133.359 15.9893 133.359 16.5801V20.2715C133.359 20.5352 133.381 20.8159 133.425 21.1138C133.474 21.4116 133.545 21.668 133.638 21.8828V22H132.224C132.156 21.8438 132.102 21.6362 132.063 21.3774C132.024 21.1138 132.004 20.8696 132.004 20.645ZM132.239 17.1953L132.253 18.1475H130.884C130.498 18.1475 130.154 18.1792 129.851 18.2427C129.548 18.3013 129.294 18.3916 129.089 18.5137C128.884 18.6357 128.728 18.7896 128.62 18.9751C128.513 19.1558 128.459 19.3682 128.459 19.6123C128.459 19.8613 128.515 20.0884 128.628 20.2935C128.74 20.4985 128.908 20.6621 129.133 20.7842C129.363 20.9014 129.643 20.96 129.975 20.96C130.39 20.96 130.757 20.8721 131.074 20.6963C131.391 20.5205 131.643 20.3057 131.828 20.0518C132.019 19.7979 132.121 19.5513 132.136 19.312L132.715 19.9639C132.68 20.1689 132.588 20.396 132.436 20.645C132.285 20.894 132.082 21.1333 131.828 21.3628C131.579 21.5874 131.282 21.7754 130.935 21.9268C130.593 22.0732 130.207 22.1465 129.778 22.1465C129.241 22.1465 128.769 22.0415 128.364 21.8315C127.964 21.6216 127.651 21.3408 127.427 20.9893C127.207 20.6328 127.097 20.2349 127.097 19.7954C127.097 19.3706 127.18 18.9971 127.346 18.6748C127.512 18.3477 127.751 18.0767 128.064 17.8618C128.376 17.6421 128.752 17.4761 129.192 17.3638C129.631 17.2515 130.122 17.1953 130.664 17.1953H132.239ZM141.686 20.4619V10.75H143.048V22H141.803L141.686 20.4619ZM136.354 18.1255V17.9717C136.354 17.3662 136.427 16.8169 136.573 16.3237C136.725 15.8257 136.937 15.3984 137.211 15.042C137.489 14.6855 137.818 14.4121 138.199 14.2217C138.585 14.0264 139.015 13.9287 139.488 13.9287C139.986 13.9287 140.421 14.0166 140.792 14.1924C141.168 14.3633 141.485 14.6147 141.744 14.9468C142.008 15.2739 142.215 15.6694 142.367 16.1333C142.518 16.5972 142.623 17.1221 142.682 17.708V18.3818C142.628 18.9629 142.523 19.4854 142.367 19.9492C142.215 20.4131 142.008 20.8086 141.744 21.1357C141.485 21.4629 141.168 21.7144 140.792 21.8901C140.416 22.061 139.977 22.1465 139.474 22.1465C139.01 22.1465 138.585 22.0464 138.199 21.8462C137.818 21.646 137.489 21.3652 137.211 21.0039C136.937 20.6426 136.725 20.2178 136.573 19.7295C136.427 19.2363 136.354 18.7017 136.354 18.1255ZM137.716 17.9717V18.1255C137.716 18.521 137.755 18.8921 137.833 19.2388C137.916 19.5854 138.043 19.8906 138.214 20.1543C138.385 20.418 138.602 20.6255 138.866 20.7769C139.129 20.9233 139.444 20.9966 139.811 20.9966C140.26 20.9966 140.629 20.9014 140.917 20.7109C141.21 20.5205 141.444 20.269 141.62 19.9565C141.796 19.644 141.932 19.3047 142.03 18.9385V17.1733C141.971 16.9048 141.886 16.646 141.774 16.397C141.666 16.1431 141.525 15.9185 141.349 15.7231C141.178 15.5229 140.965 15.3643 140.712 15.2471C140.463 15.1299 140.167 15.0713 139.825 15.0713C139.454 15.0713 139.134 15.1494 138.866 15.3057C138.602 15.457 138.385 15.667 138.214 15.9355C138.043 16.1992 137.916 16.5068 137.833 16.8584C137.755 17.2051 137.716 17.5762 137.716 17.9717ZM150.919 18.1255V17.957C150.919 17.3857 151.002 16.856 151.168 16.3677C151.334 15.8745 151.573 15.4473 151.886 15.0859C152.198 14.7197 152.577 14.4365 153.021 14.2363C153.466 14.0312 153.964 13.9287 154.515 13.9287C155.072 13.9287 155.572 14.0312 156.017 14.2363C156.466 14.4365 156.847 14.7197 157.159 15.0859C157.477 15.4473 157.718 15.8745 157.884 16.3677C158.05 16.856 158.133 17.3857 158.133 17.957V18.1255C158.133 18.6968 158.05 19.2266 157.884 19.7148C157.718 20.2031 157.477 20.6304 157.159 20.9966C156.847 21.3579 156.468 21.6411 156.024 21.8462C155.585 22.0464 155.087 22.1465 154.53 22.1465C153.973 22.1465 153.473 22.0464 153.029 21.8462C152.584 21.6411 152.203 21.3579 151.886 20.9966C151.573 20.6304 151.334 20.2031 151.168 19.7148C151.002 19.2266 150.919 18.6968 150.919 18.1255ZM152.274 17.957V18.1255C152.274 18.521 152.321 18.8945 152.413 19.2461C152.506 19.5928 152.645 19.9004 152.831 20.1689C153.021 20.4375 153.258 20.6499 153.541 20.8062C153.824 20.9575 154.154 21.0332 154.53 21.0332C154.901 21.0332 155.226 20.9575 155.504 20.8062C155.787 20.6499 156.022 20.4375 156.207 20.1689C156.393 19.9004 156.532 19.5928 156.625 19.2461C156.722 18.8945 156.771 18.521 156.771 18.1255V17.957C156.771 17.5664 156.722 17.1978 156.625 16.8511C156.532 16.4995 156.39 16.1895 156.2 15.9209C156.014 15.6475 155.78 15.4326 155.497 15.2764C155.218 15.1201 154.891 15.042 154.515 15.042C154.144 15.042 153.817 15.1201 153.534 15.2764C153.256 15.4326 153.021 15.6475 152.831 15.9209C152.645 16.1895 152.506 16.4995 152.413 16.8511C152.321 17.1978 152.274 17.5664 152.274 17.957ZM162.388 15.7671V22H161.033V14.0752H162.314L162.388 15.7671ZM162.065 17.7373L161.501 17.7153C161.506 17.1733 161.587 16.6729 161.743 16.2139C161.899 15.75 162.119 15.3472 162.402 15.0054C162.686 14.6636 163.022 14.3999 163.413 14.2144C163.809 14.0239 164.246 13.9287 164.724 13.9287C165.115 13.9287 165.466 13.9824 165.779 14.0898C166.091 14.1924 166.357 14.3584 166.577 14.5879C166.802 14.8174 166.973 15.1152 167.09 15.4814C167.207 15.8428 167.266 16.2847 167.266 16.8071V22H165.903V16.7925C165.903 16.3774 165.842 16.0454 165.72 15.7964C165.598 15.5425 165.42 15.3594 165.186 15.2471C164.951 15.1299 164.663 15.0713 164.321 15.0713C163.984 15.0713 163.677 15.1421 163.398 15.2837C163.125 15.4253 162.888 15.6206 162.688 15.8696C162.493 16.1187 162.339 16.4043 162.227 16.7266C162.119 17.0439 162.065 17.3809 162.065 17.7373ZM178.762 14.0752V15.1152H174.478V14.0752H178.762ZM175.928 12.1489H177.283V20.0371C177.283 20.3057 177.324 20.5083 177.407 20.645C177.49 20.7817 177.598 20.8721 177.73 20.916C177.861 20.96 178.003 20.9819 178.154 20.9819C178.267 20.9819 178.384 20.9722 178.506 20.9526C178.633 20.9282 178.728 20.9087 178.792 20.894L178.799 22C178.692 22.0342 178.55 22.0659 178.374 22.0952C178.203 22.1294 177.996 22.1465 177.752 22.1465C177.42 22.1465 177.114 22.0806 176.836 21.9487C176.558 21.8169 176.336 21.5972 176.17 21.2896C176.008 20.9771 175.928 20.5571 175.928 20.0298V12.1489ZM182.907 10.75V22H181.552V10.75H182.907ZM182.584 17.7373L182.02 17.7153C182.025 17.1733 182.106 16.6729 182.262 16.2139C182.418 15.75 182.638 15.3472 182.921 15.0054C183.204 14.6636 183.541 14.3999 183.932 14.2144C184.328 14.0239 184.765 13.9287 185.243 13.9287C185.634 13.9287 185.985 13.9824 186.298 14.0898C186.61 14.1924 186.876 14.3584 187.096 14.5879C187.321 14.8174 187.492 15.1152 187.609 15.4814C187.726 15.8428 187.785 16.2847 187.785 16.8071V22H186.422V16.7925C186.422 16.3774 186.361 16.0454 186.239 15.7964C186.117 15.5425 185.939 15.3594 185.704 15.2471C185.47 15.1299 185.182 15.0713 184.84 15.0713C184.503 15.0713 184.196 15.1421 183.917 15.2837C183.644 15.4253 183.407 15.6206 183.207 15.8696C183.012 16.1187 182.858 16.4043 182.746 16.7266C182.638 17.0439 182.584 17.3809 182.584 17.7373ZM194.302 22.1465C193.75 22.1465 193.25 22.0537 192.8 21.8682C192.356 21.6777 191.973 21.4116 191.651 21.0698C191.333 20.728 191.089 20.3228 190.918 19.854C190.747 19.3853 190.662 18.8726 190.662 18.3159V18.0083C190.662 17.3638 190.757 16.79 190.947 16.2871C191.138 15.7793 191.397 15.3496 191.724 14.998C192.051 14.6465 192.422 14.3804 192.837 14.1997C193.252 14.019 193.682 13.9287 194.126 13.9287C194.693 13.9287 195.181 14.0264 195.591 14.2217C196.006 14.417 196.345 14.6904 196.609 15.042C196.873 15.3887 197.068 15.7988 197.195 16.2725C197.322 16.7412 197.385 17.2539 197.385 17.8105V18.4185H191.467V17.3125H196.03V17.21C196.011 16.8584 195.938 16.5166 195.811 16.1846C195.689 15.8525 195.493 15.5791 195.225 15.3643C194.956 15.1494 194.59 15.042 194.126 15.042C193.819 15.042 193.535 15.1079 193.277 15.2397C193.018 15.3667 192.796 15.5571 192.61 15.811C192.425 16.0649 192.28 16.375 192.178 16.7412C192.075 17.1074 192.024 17.5298 192.024 18.0083V18.3159C192.024 18.6919 192.075 19.0459 192.178 19.3779C192.285 19.7051 192.439 19.9932 192.639 20.2422C192.844 20.4912 193.091 20.6865 193.379 20.8281C193.672 20.9697 194.004 21.0405 194.375 21.0405C194.854 21.0405 195.259 20.9429 195.591 20.7476C195.923 20.5522 196.214 20.291 196.463 19.9639L197.283 20.6157C197.112 20.8745 196.895 21.1211 196.631 21.3555C196.367 21.5898 196.043 21.7803 195.657 21.9268C195.276 22.0732 194.824 22.1465 194.302 22.1465Z" fill="black"/>
</g>
<defs>
<clipPath id="clip0_389_135077">
<rect width="213" height="64" fill="white"/>
</clipPath>
</defs>
</svg>
