<svg width="814" height="534" viewBox="0 0 814 534" fill="none" xmlns="http://www.w3.org/2000/svg">
<g filter="url(#filter0_d_384_95059)">
<rect x="164.229" y="90.8925" width="274.996" height="197.82" rx="20" fill="white"/>
<rect x="164.729" y="91.3925" width="273.996" height="196.82" rx="19.5" stroke="#F1ECFF"/>
</g>
<mask id="mask0_384_95059" style="mask-type:alpha" maskUnits="userSpaceOnUse" x="164" y="90" width="276" height="199">
<rect x="164.613" y="90.8927" width="274.996" height="197.82" rx="20" fill="white"/>
</mask>
<g mask="url(#mask0_384_95059)">
<path d="M161.229 202.572L178.937 179.191L199.609 179.191L221.107 136.593L241.779 127.243L263.278 121.009L284.777 153.217L305.449 141.788L326.947 118.931L347.619 149.061L369.118 118.931L390.617 163.606L411.288 164.645L432.787 155.295L453.459 184.386L474.958 195.814" stroke="#7951F9" stroke-width="2"/>
<path d="M157.438 195.814L178.937 176.074L199.609 188.541L221.107 167.762L241.779 145.944L263.278 162.567L284.777 118.931L305.449 134.515L326.947 172.957L347.619 170.879L369.118 160.489L390.617 160.489L411.288 176.074L432.787 193.736L453.459 195.814L474.958 195.814" stroke="#FB4C5C" stroke-width="2"/>
<g filter="url(#filter1_d_384_95059)">
<path d="M345.229 128.072C345.229 125.862 347.02 124.072 349.229 124.072L387.229 124.072C389.438 124.072 391.229 125.863 391.229 128.072L391.229 146.472C391.229 148.681 389.438 150.472 387.229 150.472L374.8 150.472L368.229 157.072L361.657 150.472L349.229 150.472C347.02 150.472 345.229 148.681 345.229 146.472L345.229 128.072Z" fill="#F7F4FD"/>
<path d="M374.8 149.972L374.592 149.972L374.446 150.119L368.229 156.363L362.012 150.119L361.865 149.972L361.657 149.972L349.229 149.972C347.296 149.972 345.729 148.405 345.729 146.472L345.729 128.072C345.729 126.139 347.296 124.572 349.229 124.572L387.229 124.572C389.162 124.572 390.729 126.139 390.729 128.072L390.729 146.472C390.729 148.405 389.162 149.972 387.229 149.972L374.8 149.972Z" stroke="#E8E0FF"/>
</g>
<path d="M364.145 139.852C364.145 140.468 363.909 140.992 363.437 141.424C362.965 141.848 362.273 142.084 361.361 142.132L361.361 143.512L360.761 143.512L360.761 142.144C360.177 142.112 359.625 142 359.105 141.808C358.593 141.608 358.189 141.356 357.893 141.052L358.241 140.368C358.521 140.64 358.885 140.868 359.333 141.052C359.789 141.236 360.265 141.344 360.761 141.376L360.761 138.22C360.209 138.084 359.749 137.94 359.381 137.788C359.013 137.628 358.705 137.4 358.457 137.104C358.217 136.8 358.097 136.4 358.097 135.904C358.097 135.288 358.321 134.772 358.769 134.356C359.217 133.932 359.881 133.684 360.761 133.612L360.761 132.232L361.361 132.232L361.361 133.6C361.817 133.616 362.257 133.692 362.681 133.828C363.113 133.956 363.485 134.128 363.797 134.344L363.497 135.052C363.169 134.844 362.821 134.68 362.453 134.56C362.085 134.44 361.721 134.372 361.361 134.356L361.361 137.536C361.953 137.68 362.437 137.828 362.813 137.98C363.189 138.124 363.505 138.348 363.761 138.652C364.017 138.956 364.145 139.356 364.145 139.852ZM358.973 135.88C358.973 136.296 359.125 136.612 359.429 136.828C359.741 137.044 360.185 137.228 360.761 137.38L360.761 134.38C360.169 134.428 359.721 134.592 359.417 134.872C359.121 135.144 358.973 135.48 358.973 135.88ZM361.361 141.376C361.993 141.328 362.469 141.172 362.789 140.908C363.109 140.644 363.269 140.308 363.269 139.9C363.269 139.468 363.105 139.144 362.777 138.928C362.449 138.712 361.977 138.528 361.361 138.376L361.361 141.376ZM371.472 141.304L371.472 142.072L365.58 142.072L365.58 141.46L369.072 138.04C369.512 137.608 369.808 137.236 369.96 136.924C370.12 136.604 370.2 136.284 370.2 135.964C370.2 135.468 370.028 135.084 369.684 134.812C369.348 134.532 368.864 134.392 368.232 134.392C367.248 134.392 366.484 134.704 365.94 135.328L365.328 134.8C365.656 134.416 366.072 134.12 366.576 133.912C367.088 133.704 367.664 133.6 368.304 133.6C369.16 133.6 369.836 133.804 370.332 134.212C370.836 134.612 371.088 135.164 371.088 135.868C371.088 136.3 370.992 136.716 370.8 137.116C370.608 137.516 370.244 137.976 369.708 138.496L366.852 141.304L371.472 141.304ZM375.164 137.116C376.38 137.116 377.264 137.336 377.816 137.776C378.376 138.208 378.656 138.816 378.656 139.6C378.656 140.088 378.54 140.524 378.308 140.908C378.084 141.292 377.744 141.596 377.288 141.82C376.832 142.036 376.272 142.144 375.608 142.144C375.008 142.144 374.436 142.048 373.892 141.856C373.356 141.656 372.924 141.392 372.596 141.064L373.016 140.38C373.296 140.668 373.664 140.904 374.12 141.088C374.576 141.264 375.068 141.352 375.596 141.352C376.292 141.352 376.828 141.196 377.204 140.884C377.588 140.572 377.78 140.156 377.78 139.636C377.78 139.06 377.564 138.624 377.132 138.328C376.708 138.032 375.988 137.884 374.972 137.884L373.184 137.884L373.616 133.672L378.212 133.672L378.212 134.44L374.372 134.44L374.084 137.116L375.164 137.116Z" fill="#232D42"/>
<path opacity="0.7" d="M209.245 230.708L209.245 239.072L208.153 239.072L208.153 230.708L209.245 230.708ZM212.839 233.396L212.839 237.272C212.839 237.592 212.907 237.82 213.043 237.956C213.179 238.084 213.415 238.148 213.751 238.148L214.555 238.148L214.555 239.072L213.571 239.072C212.963 239.072 212.507 238.932 212.203 238.652C211.899 238.372 211.747 237.912 211.747 237.272L211.747 233.396L210.895 233.396L210.895 232.496L211.747 232.496L211.747 230.84L212.839 230.84L212.839 232.496L214.555 232.496L214.555 233.396L212.839 233.396ZM222.278 235.532C222.278 235.74 222.266 235.96 222.242 236.192L216.986 236.192C217.026 236.84 217.246 237.348 217.646 237.716C218.054 238.076 218.546 238.256 219.122 238.256C219.594 238.256 219.986 238.148 220.298 237.932C220.618 237.708 220.842 237.412 220.97 237.044L222.146 237.044C221.97 237.676 221.618 238.192 221.09 238.592C220.562 238.984 219.906 239.18 219.122 239.18C218.498 239.18 217.938 239.04 217.442 238.76C216.954 238.48 216.57 238.084 216.29 237.572C216.01 237.052 215.87 236.452 215.87 235.772C215.87 235.092 216.006 234.496 216.278 233.984C216.55 233.472 216.93 233.08 217.418 232.808C217.914 232.528 218.482 232.388 219.122 232.388C219.746 232.388 220.298 232.524 220.778 232.796C221.258 233.068 221.626 233.444 221.882 233.924C222.146 234.396 222.278 234.932 222.278 235.532ZM221.15 235.304C221.15 234.888 221.058 234.532 220.874 234.236C220.69 233.932 220.438 233.704 220.118 233.552C219.806 233.392 219.458 233.312 219.074 233.312C218.522 233.312 218.05 233.488 217.658 233.84C217.274 234.192 217.054 234.68 216.998 235.304L221.15 235.304ZM232.027 232.376C232.539 232.376 232.995 232.484 233.395 232.7C233.795 232.908 234.111 233.224 234.343 233.648C234.575 234.072 234.691 234.588 234.691 235.196L234.691 239.072L233.611 239.072L233.611 235.352C233.611 234.696 233.447 234.196 233.119 233.852C232.799 233.5 232.363 233.324 231.811 233.324C231.243 233.324 230.791 233.508 230.455 233.876C230.119 234.236 229.951 234.76 229.951 235.448L229.951 239.072L228.871 239.072L228.871 235.352C228.871 234.696 228.707 234.196 228.379 233.852C228.059 233.5 227.623 233.324 227.071 233.324C226.503 233.324 226.051 233.508 225.715 233.876C225.379 234.236 225.211 234.76 225.211 235.448L225.211 239.072L224.119 239.072L224.119 232.496L225.211 232.496L225.211 233.444C225.427 233.1 225.715 232.836 226.075 232.652C226.443 232.468 226.847 232.376 227.287 232.376C227.839 232.376 228.327 232.5 228.751 232.748C229.175 232.996 229.491 233.36 229.699 233.84C229.883 233.376 230.187 233.016 230.611 232.76C231.035 232.504 231.507 232.376 232.027 232.376ZM240.278 232.58C240.334 231.844 240.618 231.268 241.13 230.852C241.642 230.436 242.306 230.228 243.122 230.228C243.666 230.228 244.134 230.328 244.526 230.528C244.926 230.72 245.226 230.984 245.426 231.32C245.634 231.656 245.738 232.036 245.738 232.46C245.738 232.956 245.594 233.384 245.306 233.744C245.026 234.104 244.658 234.336 244.202 234.44L244.202 234.5C244.722 234.628 245.134 234.88 245.438 235.256C245.742 235.632 245.894 236.124 245.894 236.732C245.894 237.188 245.79 237.6 245.582 237.968C245.374 238.328 245.062 238.612 244.646 238.82C244.23 239.028 243.73 239.132 243.146 239.132C242.298 239.132 241.602 238.912 241.058 238.472C240.514 238.024 240.21 237.392 240.146 236.576L241.202 236.576C241.258 237.056 241.454 237.448 241.79 237.752C242.126 238.056 242.574 238.208 243.134 238.208C243.694 238.208 244.118 238.064 244.406 237.776C244.702 237.48 244.85 237.1 244.85 236.636C244.85 236.036 244.65 235.604 244.25 235.34C243.85 235.076 243.246 234.944 242.438 234.944L242.162 234.944L242.162 234.032L242.45 234.032C243.186 234.024 243.742 233.904 244.118 233.672C244.494 233.432 244.682 233.064 244.682 232.568C244.682 232.144 244.542 231.804 244.262 231.548C243.99 231.292 243.598 231.164 243.086 231.164C242.59 231.164 242.19 231.292 241.886 231.548C241.582 231.804 241.402 232.148 241.346 232.58L240.278 232.58ZM247.768 234.644C247.768 233.268 247.992 232.196 248.44 231.428C248.888 230.652 249.672 230.264 250.792 230.264C251.904 230.264 252.684 230.652 253.132 231.428C253.58 232.196 253.804 233.268 253.804 234.644C253.804 236.044 253.58 237.132 253.132 237.908C252.684 238.684 251.904 239.072 250.792 239.072C249.672 239.072 248.888 238.684 248.44 237.908C247.992 237.132 247.768 236.044 247.768 234.644ZM252.724 234.644C252.724 233.948 252.676 233.36 252.58 232.88C252.492 232.392 252.304 232 252.016 231.704C251.736 231.408 251.328 231.26 250.792 231.26C250.248 231.26 249.832 231.408 249.544 231.704C249.264 232 249.076 232.392 248.98 232.88C248.892 233.36 248.848 233.948 248.848 234.644C248.848 235.364 248.892 235.968 248.98 236.456C249.076 236.944 249.264 237.336 249.544 237.632C249.832 237.928 250.248 238.076 250.792 238.076C251.328 238.076 251.736 237.928 252.016 237.632C252.304 237.336 252.492 236.944 252.58 236.456C252.676 235.968 252.724 235.364 252.724 234.644ZM262.134 239.156C261.582 239.156 261.086 239.06 260.646 238.868C260.214 238.668 259.874 238.396 259.626 238.052C259.378 237.7 259.25 237.296 259.242 236.84L260.406 236.84C260.446 237.232 260.606 237.564 260.886 237.836C261.174 238.1 261.59 238.232 262.134 238.232C262.654 238.232 263.062 238.104 263.358 237.848C263.662 237.584 263.814 237.248 263.814 236.84C263.814 236.52 263.726 236.26 263.55 236.06C263.374 235.86 263.154 235.708 262.89 235.604C262.626 235.5 262.27 235.388 261.822 235.268C261.27 235.124 260.826 234.98 260.49 234.836C260.162 234.692 259.878 234.468 259.638 234.164C259.406 233.852 259.29 233.436 259.29 232.916C259.29 232.46 259.406 232.056 259.638 231.704C259.87 231.352 260.194 231.08 260.61 230.888C261.034 230.696 261.518 230.6 262.062 230.6C262.846 230.6 263.486 230.796 263.982 231.188C264.486 231.58 264.77 232.1 264.834 232.748L263.634 232.748C263.594 232.428 263.426 232.148 263.13 231.908C262.834 231.66 262.442 231.536 261.954 231.536C261.498 231.536 261.126 231.656 260.838 231.896C260.55 232.128 260.406 232.456 260.406 232.88C260.406 233.184 260.49 233.432 260.658 233.624C260.834 233.816 261.046 233.964 261.294 234.068C261.55 234.164 261.906 234.276 262.362 234.404C262.914 234.556 263.358 234.708 263.694 234.86C264.03 235.004 264.318 235.232 264.558 235.544C264.798 235.848 264.918 236.264 264.918 236.792C264.918 237.2 264.81 237.584 264.594 237.944C264.378 238.304 264.058 238.596 263.634 238.82C263.21 239.044 262.71 239.156 262.134 239.156ZM266.517 235.76C266.517 235.088 266.653 234.5 266.925 233.996C267.197 233.484 267.569 233.088 268.041 232.808C268.521 232.528 269.053 232.388 269.637 232.388C270.213 232.388 270.713 232.512 271.137 232.76C271.561 233.008 271.877 233.32 272.085 233.696L272.085 232.496L273.189 232.496L273.189 239.072L272.085 239.072L272.085 237.848C271.869 238.232 271.545 238.552 271.113 238.808C270.689 239.056 270.193 239.18 269.625 239.18C269.041 239.18 268.513 239.036 268.041 238.748C267.569 238.46 267.197 238.056 266.925 237.536C266.653 237.016 266.517 236.424 266.517 235.76ZM272.085 235.772C272.085 235.276 271.985 234.844 271.785 234.476C271.585 234.108 271.313 233.828 270.969 233.636C270.633 233.436 270.261 233.336 269.853 233.336C269.445 233.336 269.073 233.432 268.737 233.624C268.401 233.816 268.133 234.096 267.933 234.464C267.733 234.832 267.633 235.264 267.633 235.76C267.633 236.264 267.733 236.704 267.933 237.08C268.133 237.448 268.401 237.732 268.737 237.932C269.073 238.124 269.445 238.22 269.853 238.22C270.261 238.22 270.633 238.124 270.969 237.932C271.313 237.732 271.585 237.448 271.785 237.08C271.985 236.704 272.085 236.268 272.085 235.772ZM276.527 230.192L276.527 239.072L275.435 239.072L275.435 230.192L276.527 230.192ZM284.788 235.532C284.788 235.74 284.776 235.96 284.752 236.192L279.496 236.192C279.536 236.84 279.756 237.348 280.156 237.716C280.564 238.076 281.056 238.256 281.632 238.256C282.104 238.256 282.496 238.148 282.808 237.932C283.128 237.708 283.352 237.412 283.48 237.044L284.656 237.044C284.48 237.676 284.128 238.192 283.6 238.592C283.072 238.984 282.416 239.18 281.632 239.18C281.008 239.18 280.448 239.04 279.952 238.76C279.464 238.48 279.08 238.084 278.8 237.572C278.52 237.052 278.38 236.452 278.38 235.772C278.38 235.092 278.516 234.496 278.788 233.984C279.06 233.472 279.44 233.08 279.928 232.808C280.424 232.528 280.992 232.388 281.632 232.388C282.256 232.388 282.808 232.524 283.288 232.796C283.768 233.068 284.136 233.444 284.392 233.924C284.656 234.396 284.788 234.932 284.788 235.532ZM283.66 235.304C283.66 234.888 283.568 234.532 283.384 234.236C283.2 233.932 282.948 233.704 282.628 233.552C282.316 233.392 281.968 233.312 281.584 233.312C281.032 233.312 280.56 233.488 280.168 233.84C279.784 234.192 279.564 234.68 279.508 235.304L283.66 235.304ZM288.957 239.18C288.453 239.18 288.001 239.096 287.601 238.928C287.201 238.752 286.885 238.512 286.653 238.208C286.421 237.896 286.293 237.54 286.269 237.14L287.397 237.14C287.429 237.468 287.581 237.736 287.853 237.944C288.133 238.152 288.497 238.256 288.945 238.256C289.361 238.256 289.689 238.164 289.929 237.98C290.169 237.796 290.289 237.564 290.289 237.284C290.289 236.996 290.161 236.784 289.905 236.648C289.649 236.504 289.253 236.364 288.717 236.228C288.229 236.1 287.829 235.972 287.517 235.844C287.213 235.708 286.949 235.512 286.725 235.256C286.509 234.992 286.401 234.648 286.401 234.224C286.401 233.888 286.501 233.58 286.701 233.3C286.901 233.02 287.185 232.8 287.553 232.64C287.921 232.472 288.341 232.388 288.813 232.388C289.541 232.388 290.129 232.572 290.577 232.94C291.025 233.308 291.265 233.812 291.297 234.452L290.205 234.452C290.181 234.108 290.041 233.832 289.785 233.624C289.537 233.416 289.201 233.312 288.777 233.312C288.385 233.312 288.073 233.396 287.841 233.564C287.609 233.732 287.493 233.952 287.493 234.224C287.493 234.44 287.561 234.62 287.697 234.764C287.841 234.9 288.017 235.012 288.225 235.1C288.441 235.18 288.737 235.272 289.113 235.376C289.585 235.504 289.969 235.632 290.265 235.76C290.561 235.88 290.813 236.064 291.021 236.312C291.237 236.56 291.349 236.884 291.357 237.284C291.357 237.644 291.257 237.968 291.057 238.256C290.857 238.544 290.573 238.772 290.205 238.94C289.845 239.1 289.429 239.18 288.957 239.18Z" fill="#232D42"/>
<circle cx="193.612" cy="234.892" r="4" fill="#7951F9"/>
<path d="M215.167 256.258C215.167 256.743 215.041 257.201 214.789 257.63C214.547 258.05 214.183 258.4 213.697 258.68C213.221 258.951 212.657 259.109 212.003 259.156L212.003 260.29L211.107 260.29L211.107 259.142C210.174 259.058 209.423 258.778 208.853 258.302C208.284 257.817 207.99 257.163 207.971 256.342L210.071 256.342C210.127 257.014 210.473 257.42 211.107 257.56L211.107 254.886C210.435 254.718 209.894 254.55 209.483 254.382C209.073 254.214 208.718 253.943 208.419 253.57C208.121 253.197 207.971 252.688 207.971 252.044C207.971 251.232 208.261 250.569 208.839 250.056C209.427 249.543 210.183 249.249 211.107 249.174L211.107 248.04L212.003 248.04L212.003 249.174C212.899 249.249 213.613 249.519 214.145 249.986C214.687 250.453 214.99 251.097 215.055 251.918L212.941 251.918C212.913 251.647 212.815 251.414 212.647 251.218C212.489 251.013 212.274 250.868 212.003 250.784L212.003 253.43C212.703 253.607 213.254 253.78 213.655 253.948C214.066 254.107 214.421 254.373 214.719 254.746C215.018 255.11 215.167 255.614 215.167 256.258ZM210.015 251.946C210.015 252.254 210.109 252.506 210.295 252.702C210.482 252.889 210.753 253.043 211.107 253.164L211.107 250.742C210.771 250.789 210.505 250.915 210.309 251.12C210.113 251.325 210.015 251.601 210.015 251.946ZM212.003 257.588C212.358 257.523 212.633 257.378 212.829 257.154C213.035 256.93 213.137 256.659 213.137 256.342C213.137 256.034 213.039 255.787 212.843 255.6C212.647 255.413 212.367 255.259 212.003 255.138L212.003 257.588ZM219.84 256.202C219.914 256.613 220.082 256.93 220.344 257.154C220.614 257.369 220.974 257.476 221.422 257.476C222 257.476 222.42 257.238 222.682 256.762C222.943 256.277 223.074 255.465 223.074 254.326C222.859 254.625 222.556 254.858 222.164 255.026C221.781 255.194 221.366 255.278 220.918 255.278C220.32 255.278 219.779 255.157 219.294 254.914C218.818 254.662 218.44 254.293 218.16 253.808C217.88 253.313 217.74 252.716 217.74 252.016C217.74 250.98 218.048 250.159 218.664 249.552C219.28 248.936 220.12 248.628 221.184 248.628C222.509 248.628 223.442 249.053 223.984 249.902C224.534 250.751 224.81 252.03 224.81 253.738C224.81 254.951 224.702 255.945 224.488 256.72C224.282 257.495 223.923 258.083 223.41 258.484C222.906 258.885 222.215 259.086 221.338 259.086C220.647 259.086 220.059 258.955 219.574 258.694C219.088 258.423 218.715 258.073 218.454 257.644C218.202 257.205 218.057 256.725 218.02 256.202L219.84 256.202ZM221.324 253.682C221.809 253.682 222.192 253.533 222.472 253.234C222.752 252.935 222.892 252.534 222.892 252.03C222.892 251.479 222.742 251.055 222.444 250.756C222.154 250.448 221.758 250.294 221.254 250.294C220.75 250.294 220.348 250.453 220.05 250.77C219.76 251.078 219.616 251.489 219.616 252.002C219.616 252.497 219.756 252.903 220.036 253.22C220.325 253.528 220.754 253.682 221.324 253.682ZM232.067 251.414C231.974 251.022 231.811 250.728 231.577 250.532C231.353 250.336 231.027 250.238 230.597 250.238C229.953 250.238 229.477 250.499 229.169 251.022C228.871 251.535 228.717 252.375 228.707 253.542C228.931 253.169 229.258 252.879 229.687 252.674C230.117 252.459 230.583 252.352 231.087 252.352C231.694 252.352 232.231 252.483 232.697 252.744C233.164 253.005 233.528 253.388 233.789 253.892C234.051 254.387 234.181 254.984 234.181 255.684C234.181 256.347 234.046 256.939 233.775 257.462C233.514 257.975 233.127 258.377 232.613 258.666C232.1 258.955 231.489 259.1 230.779 259.1C229.809 259.1 229.043 258.885 228.483 258.456C227.933 258.027 227.545 257.429 227.321 256.664C227.107 255.889 226.999 254.937 226.999 253.808C226.999 252.1 227.293 250.812 227.881 249.944C228.469 249.067 229.398 248.628 230.667 248.628C231.647 248.628 232.408 248.894 232.949 249.426C233.491 249.958 233.803 250.621 233.887 251.414L232.067 251.414ZM230.639 253.962C230.145 253.962 229.729 254.107 229.393 254.396C229.057 254.685 228.889 255.105 228.889 255.656C228.889 256.207 229.043 256.641 229.351 256.958C229.669 257.275 230.112 257.434 230.681 257.434C231.185 257.434 231.582 257.28 231.871 256.972C232.17 256.664 232.319 256.249 232.319 255.726C232.319 255.185 232.175 254.755 231.885 254.438C231.605 254.121 231.19 253.962 230.639 253.962ZM236.786 256.86C237.682 256.113 238.396 255.493 238.928 254.998C239.46 254.494 239.904 253.971 240.258 253.43C240.613 252.889 240.79 252.357 240.79 251.834C240.79 251.358 240.678 250.985 240.454 250.714C240.23 250.443 239.885 250.308 239.418 250.308C238.952 250.308 238.592 250.467 238.34 250.784C238.088 251.092 237.958 251.517 237.948 252.058L236.044 252.058C236.082 250.938 236.413 250.089 237.038 249.51C237.673 248.931 238.476 248.642 239.446 248.642C240.51 248.642 241.327 248.927 241.896 249.496C242.466 250.056 242.75 250.798 242.75 251.722C242.75 252.45 242.554 253.145 242.162 253.808C241.77 254.471 241.322 255.049 240.818 255.544C240.314 256.029 239.656 256.617 238.844 257.308L242.974 257.308L242.974 258.932L236.058 258.932L236.058 257.476L236.786 256.86ZM245.741 259.17C245.387 259.17 245.093 259.063 244.859 258.848C244.635 258.624 244.523 258.349 244.523 258.022C244.523 257.695 244.635 257.425 244.859 257.21C245.093 256.986 245.387 256.874 245.741 256.874C246.087 256.874 246.371 256.986 246.595 257.21C246.819 257.425 246.931 257.695 246.931 258.022C246.931 258.349 246.819 258.624 246.595 258.848C246.371 259.063 246.087 259.17 245.741 259.17ZM248.754 251.554C248.801 250.621 249.128 249.902 249.734 249.398C250.35 248.885 251.158 248.628 252.156 248.628C252.838 248.628 253.421 248.749 253.906 248.992C254.392 249.225 254.756 249.547 254.998 249.958C255.25 250.359 255.376 250.817 255.376 251.33C255.376 251.918 255.222 252.417 254.914 252.828C254.616 253.229 254.256 253.5 253.836 253.64L253.836 253.696C254.378 253.864 254.798 254.163 255.096 254.592C255.404 255.021 255.558 255.572 255.558 256.244C255.558 256.804 255.428 257.303 255.166 257.742C254.914 258.181 254.536 258.526 254.032 258.778C253.538 259.021 252.94 259.142 252.24 259.142C251.186 259.142 250.327 258.876 249.664 258.344C249.002 257.812 248.652 257.028 248.614 255.992L250.518 255.992C250.537 256.449 250.691 256.818 250.98 257.098C251.279 257.369 251.685 257.504 252.198 257.504C252.674 257.504 253.038 257.373 253.29 257.112C253.552 256.841 253.682 256.496 253.682 256.076C253.682 255.516 253.505 255.115 253.15 254.872C252.796 254.629 252.245 254.508 251.498 254.508L251.092 254.508L251.092 252.898L251.498 252.898C252.824 252.898 253.486 252.455 253.486 251.568C253.486 251.167 253.365 250.854 253.122 250.63C252.889 250.406 252.548 250.294 252.1 250.294C251.662 250.294 251.321 250.415 251.078 250.658C250.845 250.891 250.71 251.19 250.672 251.554L248.754 251.554ZM259.815 256.202C259.89 256.613 260.058 256.93 260.319 257.154C260.59 257.369 260.949 257.476 261.397 257.476C261.976 257.476 262.396 257.238 262.657 256.762C262.918 256.277 263.049 255.465 263.049 254.326C262.834 254.625 262.531 254.858 262.139 255.026C261.756 255.194 261.341 255.278 260.893 255.278C260.296 255.278 259.754 255.157 259.269 254.914C258.793 254.662 258.415 254.293 258.135 253.808C257.855 253.313 257.715 252.716 257.715 252.016C257.715 250.98 258.023 250.159 258.639 249.552C259.255 248.936 260.095 248.628 261.159 248.628C262.484 248.628 263.418 249.053 263.959 249.902C264.51 250.751 264.785 252.03 264.785 253.738C264.785 254.951 264.678 255.945 264.463 256.72C264.258 257.495 263.898 258.083 263.385 258.484C262.881 258.885 262.19 259.086 261.313 259.086C260.622 259.086 260.034 258.955 259.549 258.694C259.064 258.423 258.69 258.073 258.429 257.644C258.177 257.205 258.032 256.725 257.995 256.202L259.815 256.202ZM261.299 253.682C261.784 253.682 262.167 253.533 262.447 253.234C262.727 252.935 262.867 252.534 262.867 252.03C262.867 251.479 262.718 251.055 262.419 250.756C262.13 250.448 261.733 250.294 261.229 250.294C260.725 250.294 260.324 250.453 260.025 250.77C259.736 251.078 259.591 251.489 259.591 252.002C259.591 252.497 259.731 252.903 260.011 253.22C260.3 253.528 260.73 253.682 261.299 253.682Z" fill="#232D42"/>
<path opacity="0.7" d="M333.245 230.708L333.245 239.072L332.153 239.072L332.153 230.708L333.245 230.708ZM336.838 233.396L336.838 237.272C336.838 237.592 336.906 237.82 337.042 237.956C337.178 238.084 337.414 238.148 337.75 238.148L338.554 238.148L338.554 239.072L337.57 239.072C336.962 239.072 336.506 238.932 336.202 238.652C335.898 238.372 335.746 237.912 335.746 237.272L335.746 233.396L334.894 233.396L334.894 232.496L335.746 232.496L335.746 230.84L336.838 230.84L336.838 232.496L338.554 232.496L338.554 233.396L336.838 233.396ZM346.277 235.532C346.277 235.74 346.265 235.96 346.241 236.192L340.985 236.192C341.025 236.84 341.245 237.348 341.645 237.716C342.053 238.076 342.545 238.256 343.121 238.256C343.593 238.256 343.985 238.148 344.297 237.932C344.617 237.708 344.841 237.412 344.969 237.044L346.145 237.044C345.969 237.676 345.617 238.192 345.089 238.592C344.561 238.984 343.905 239.18 343.121 239.18C342.497 239.18 341.937 239.04 341.441 238.76C340.953 238.48 340.569 238.084 340.289 237.572C340.009 237.052 339.869 236.452 339.869 235.772C339.869 235.092 340.005 234.496 340.277 233.984C340.549 233.472 340.929 233.08 341.417 232.808C341.913 232.528 342.481 232.388 343.121 232.388C343.745 232.388 344.297 232.524 344.777 232.796C345.257 233.068 345.625 233.444 345.881 233.924C346.145 234.396 346.277 234.932 346.277 235.532ZM345.149 235.304C345.149 234.888 345.057 234.532 344.873 234.236C344.689 233.932 344.437 233.704 344.117 233.552C343.805 233.392 343.457 233.312 343.073 233.312C342.521 233.312 342.049 233.488 341.657 233.84C341.273 234.192 341.053 234.68 340.997 235.304L345.149 235.304ZM356.027 232.376C356.539 232.376 356.995 232.484 357.395 232.7C357.795 232.908 358.111 233.224 358.343 233.648C358.575 234.072 358.691 234.588 358.691 235.196L358.691 239.072L357.611 239.072L357.611 235.352C357.611 234.696 357.447 234.196 357.119 233.852C356.799 233.5 356.363 233.324 355.811 233.324C355.243 233.324 354.791 233.508 354.455 233.876C354.119 234.236 353.951 234.76 353.951 235.448L353.951 239.072L352.871 239.072L352.871 235.352C352.871 234.696 352.707 234.196 352.379 233.852C352.059 233.5 351.623 233.324 351.071 233.324C350.503 233.324 350.051 233.508 349.715 233.876C349.379 234.236 349.211 234.76 349.211 235.448L349.211 239.072L348.119 239.072L348.119 232.496L349.211 232.496L349.211 233.444C349.427 233.1 349.715 232.836 350.075 232.652C350.443 232.468 350.847 232.376 351.287 232.376C351.839 232.376 352.327 232.5 352.751 232.748C353.175 232.996 353.491 233.36 353.699 233.84C353.883 233.376 354.187 233.016 354.611 232.76C355.035 232.504 355.507 232.376 356.027 232.376ZM364.013 231.392L364.013 230.396L366.269 230.396L366.269 239.072L365.165 239.072L365.165 231.392L364.013 231.392ZM368.281 237.14L368.281 236.312L372.493 230.48L373.801 230.48L373.801 236.192L375.001 236.192L375.001 237.14L373.801 237.14L373.801 239.072L372.721 239.072L372.721 237.14L368.281 237.14ZM372.769 231.62L369.541 236.192L372.769 236.192L372.769 231.62ZM382.923 239.156C382.371 239.156 381.875 239.06 381.435 238.868C381.003 238.668 380.663 238.396 380.415 238.052C380.167 237.7 380.039 237.296 380.031 236.84L381.195 236.84C381.235 237.232 381.395 237.564 381.675 237.836C381.963 238.1 382.379 238.232 382.923 238.232C383.443 238.232 383.851 238.104 384.147 237.848C384.451 237.584 384.603 237.248 384.603 236.84C384.603 236.52 384.515 236.26 384.339 236.06C384.163 235.86 383.943 235.708 383.679 235.604C383.415 235.5 383.059 235.388 382.611 235.268C382.059 235.124 381.615 234.98 381.279 234.836C380.951 234.692 380.667 234.468 380.427 234.164C380.195 233.852 380.079 233.436 380.079 232.916C380.079 232.46 380.195 232.056 380.427 231.704C380.659 231.352 380.983 231.08 381.399 230.888C381.823 230.696 382.307 230.6 382.851 230.6C383.635 230.6 384.275 230.796 384.771 231.188C385.275 231.58 385.559 232.1 385.623 232.748L384.423 232.748C384.383 232.428 384.215 232.148 383.919 231.908C383.623 231.66 383.231 231.536 382.743 231.536C382.287 231.536 381.915 231.656 381.627 231.896C381.339 232.128 381.195 232.456 381.195 232.88C381.195 233.184 381.279 233.432 381.447 233.624C381.623 233.816 381.835 233.964 382.083 234.068C382.339 234.164 382.695 234.276 383.151 234.404C383.703 234.556 384.147 234.708 384.483 234.86C384.819 235.004 385.107 235.232 385.347 235.544C385.587 235.848 385.707 236.264 385.707 236.792C385.707 237.2 385.599 237.584 385.383 237.944C385.167 238.304 384.847 238.596 384.423 238.82C383.999 239.044 383.499 239.156 382.923 239.156ZM387.306 235.76C387.306 235.088 387.442 234.5 387.714 233.996C387.986 233.484 388.358 233.088 388.83 232.808C389.31 232.528 389.842 232.388 390.426 232.388C391.002 232.388 391.502 232.512 391.926 232.76C392.35 233.008 392.666 233.32 392.874 233.696L392.874 232.496L393.978 232.496L393.978 239.072L392.874 239.072L392.874 237.848C392.658 238.232 392.334 238.552 391.902 238.808C391.478 239.056 390.982 239.18 390.414 239.18C389.83 239.18 389.302 239.036 388.83 238.748C388.358 238.46 387.986 238.056 387.714 237.536C387.442 237.016 387.306 236.424 387.306 235.76ZM392.874 235.772C392.874 235.276 392.774 234.844 392.574 234.476C392.374 234.108 392.102 233.828 391.758 233.636C391.422 233.436 391.05 233.336 390.642 233.336C390.234 233.336 389.862 233.432 389.526 233.624C389.19 233.816 388.922 234.096 388.722 234.464C388.522 234.832 388.422 235.264 388.422 235.76C388.422 236.264 388.522 236.704 388.722 237.08C388.922 237.448 389.19 237.732 389.526 237.932C389.862 238.124 390.234 238.22 390.642 238.22C391.05 238.22 391.422 238.124 391.758 237.932C392.102 237.732 392.374 237.448 392.574 237.08C392.774 236.704 392.874 236.268 392.874 235.772ZM397.315 230.192L397.315 239.072L396.223 239.072L396.223 230.192L397.315 230.192ZM405.576 235.532C405.576 235.74 405.564 235.96 405.54 236.192L400.284 236.192C400.324 236.84 400.544 237.348 400.944 237.716C401.352 238.076 401.844 238.256 402.42 238.256C402.892 238.256 403.284 238.148 403.596 237.932C403.916 237.708 404.14 237.412 404.268 237.044L405.444 237.044C405.268 237.676 404.916 238.192 404.388 238.592C403.86 238.984 403.204 239.18 402.42 239.18C401.796 239.18 401.236 239.04 400.74 238.76C400.252 238.48 399.868 238.084 399.588 237.572C399.308 237.052 399.168 236.452 399.168 235.772C399.168 235.092 399.304 234.496 399.576 233.984C399.848 233.472 400.228 233.08 400.716 232.808C401.212 232.528 401.78 232.388 402.42 232.388C403.044 232.388 403.596 232.524 404.076 232.796C404.556 233.068 404.924 233.444 405.18 233.924C405.444 234.396 405.576 234.932 405.576 235.532ZM404.448 235.304C404.448 234.888 404.356 234.532 404.172 234.236C403.988 233.932 403.736 233.704 403.416 233.552C403.104 233.392 402.756 233.312 402.372 233.312C401.82 233.312 401.348 233.488 400.956 233.84C400.572 234.192 400.352 234.68 400.296 235.304L404.448 235.304ZM409.746 239.18C409.242 239.18 408.79 239.096 408.39 238.928C407.99 238.752 407.674 238.512 407.442 238.208C407.21 237.896 407.082 237.54 407.058 237.14L408.186 237.14C408.218 237.468 408.37 237.736 408.642 237.944C408.922 238.152 409.286 238.256 409.734 238.256C410.15 238.256 410.478 238.164 410.718 237.98C410.958 237.796 411.078 237.564 411.078 237.284C411.078 236.996 410.95 236.784 410.694 236.648C410.438 236.504 410.042 236.364 409.506 236.228C409.018 236.1 408.618 235.972 408.306 235.844C408.002 235.708 407.738 235.512 407.514 235.256C407.298 234.992 407.19 234.648 407.19 234.224C407.19 233.888 407.29 233.58 407.49 233.3C407.69 233.02 407.974 232.8 408.342 232.64C408.71 232.472 409.13 232.388 409.602 232.388C410.33 232.388 410.918 232.572 411.366 232.94C411.814 233.308 412.054 233.812 412.086 234.452L410.994 234.452C410.97 234.108 410.83 233.832 410.574 233.624C410.326 233.416 409.99 233.312 409.566 233.312C409.174 233.312 408.862 233.396 408.63 233.564C408.398 233.732 408.282 233.952 408.282 234.224C408.282 234.44 408.35 234.62 408.486 234.764C408.63 234.9 408.806 235.012 409.014 235.1C409.23 235.18 409.526 235.272 409.902 235.376C410.374 235.504 410.758 235.632 411.054 235.76C411.35 235.88 411.602 236.064 411.81 236.312C412.026 236.56 412.138 236.884 412.146 237.284C412.146 237.644 412.046 237.968 411.846 238.256C411.646 238.544 411.362 238.772 410.994 238.94C410.634 239.1 410.218 239.18 409.746 239.18Z" fill="#232D42"/>
<circle cx="317.612" cy="234.892" r="4" fill="#DFD5FE"/>
<path d="M339.167 254.258C339.167 254.743 339.041 255.2 338.789 255.63C338.546 256.05 338.182 256.4 337.697 256.68C337.221 256.95 336.656 257.109 336.003 257.156L336.003 258.29L335.107 258.29L335.107 257.142C334.174 257.058 333.422 256.778 332.853 256.302C332.284 255.816 331.99 255.163 331.971 254.342L334.071 254.342C334.127 255.014 334.472 255.42 335.107 255.56L335.107 252.886C334.435 252.718 333.894 252.55 333.483 252.382C333.072 252.214 332.718 251.943 332.419 251.57C332.12 251.196 331.971 250.688 331.971 250.044C331.971 249.232 332.26 248.569 332.839 248.056C333.427 247.542 334.183 247.248 335.107 247.174L335.107 246.04L336.003 246.04L336.003 247.174C336.899 247.248 337.613 247.519 338.145 247.986C338.686 248.452 338.99 249.096 339.055 249.918L336.941 249.918C336.913 249.647 336.815 249.414 336.647 249.218C336.488 249.012 336.274 248.868 336.003 248.784L336.003 251.43C336.703 251.607 337.254 251.78 337.655 251.948C338.066 252.106 338.42 252.372 338.719 252.746C339.018 253.11 339.167 253.614 339.167 254.258ZM334.015 249.946C334.015 250.254 334.108 250.506 334.295 250.702C334.482 250.888 334.752 251.042 335.107 251.164L335.107 248.742C334.771 248.788 334.505 248.914 334.309 249.12C334.113 249.325 334.015 249.6 334.015 249.946ZM336.003 255.588C336.358 255.522 336.633 255.378 336.829 255.154C337.034 254.93 337.137 254.659 337.137 254.342C337.137 254.034 337.039 253.786 336.843 253.6C336.647 253.413 336.367 253.259 336.003 253.138L336.003 255.588ZM343.839 254.202C343.914 254.612 344.082 254.93 344.343 255.154C344.614 255.368 344.973 255.476 345.421 255.476C346 255.476 346.42 255.238 346.681 254.762C346.942 254.276 347.073 253.464 347.073 252.326C346.858 252.624 346.555 252.858 346.163 253.026C345.78 253.194 345.365 253.278 344.917 253.278C344.32 253.278 343.778 253.156 343.293 252.914C342.817 252.662 342.439 252.293 342.159 251.808C341.879 251.313 341.739 250.716 341.739 250.016C341.739 248.98 342.047 248.158 342.663 247.552C343.279 246.936 344.119 246.628 345.183 246.628C346.508 246.628 347.442 247.052 347.983 247.902C348.534 248.751 348.809 250.03 348.809 251.738C348.809 252.951 348.702 253.945 348.487 254.72C348.282 255.494 347.922 256.082 347.409 256.484C346.905 256.885 346.214 257.086 345.337 257.086C344.646 257.086 344.058 256.955 343.573 256.694C343.088 256.423 342.714 256.073 342.453 255.644C342.201 255.205 342.056 254.724 342.019 254.202L343.839 254.202ZM345.323 251.682C345.808 251.682 346.191 251.532 346.471 251.234C346.751 250.935 346.891 250.534 346.891 250.03C346.891 249.479 346.742 249.054 346.443 248.756C346.154 248.448 345.757 248.294 345.253 248.294C344.749 248.294 344.348 248.452 344.049 248.77C343.76 249.078 343.615 249.488 343.615 250.002C343.615 250.496 343.755 250.902 344.035 251.22C344.324 251.528 344.754 251.682 345.323 251.682ZM356.067 249.414C355.973 249.022 355.81 248.728 355.577 248.532C355.353 248.336 355.026 248.238 354.597 248.238C353.953 248.238 353.477 248.499 353.169 249.022C352.87 249.535 352.716 250.375 352.707 251.542C352.931 251.168 353.257 250.879 353.687 250.674C354.116 250.459 354.583 250.352 355.087 250.352C355.693 250.352 356.23 250.482 356.697 250.744C357.163 251.005 357.527 251.388 357.789 251.892C358.05 252.386 358.181 252.984 358.181 253.684C358.181 254.346 358.045 254.939 357.775 255.462C357.513 255.975 357.126 256.376 356.613 256.666C356.099 256.955 355.488 257.1 354.779 257.1C353.808 257.1 353.043 256.885 352.483 256.456C351.932 256.026 351.545 255.429 351.321 254.664C351.106 253.889 350.999 252.937 350.999 251.808C350.999 250.1 351.293 248.812 351.881 247.944C352.469 247.066 353.397 246.628 354.667 246.628C355.647 246.628 356.407 246.894 356.949 247.426C357.49 247.958 357.803 248.62 357.887 249.414L356.067 249.414ZM354.639 251.962C354.144 251.962 353.729 252.106 353.393 252.396C353.057 252.685 352.889 253.105 352.889 253.656C352.889 254.206 353.043 254.64 353.351 254.958C353.668 255.275 354.111 255.434 354.681 255.434C355.185 255.434 355.581 255.28 355.871 254.972C356.169 254.664 356.319 254.248 356.319 253.726C356.319 253.184 356.174 252.755 355.885 252.438C355.605 252.12 355.189 251.962 354.639 251.962ZM360.786 254.86C361.682 254.113 362.396 253.492 362.928 252.998C363.46 252.494 363.903 251.971 364.258 251.43C364.613 250.888 364.79 250.356 364.79 249.834C364.79 249.358 364.678 248.984 364.454 248.714C364.23 248.443 363.885 248.308 363.418 248.308C362.951 248.308 362.592 248.466 362.34 248.784C362.088 249.092 361.957 249.516 361.948 250.058L360.044 250.058C360.081 248.938 360.413 248.088 361.038 247.51C361.673 246.931 362.475 246.642 363.446 246.642C364.51 246.642 365.327 246.926 365.896 247.496C366.465 248.056 366.75 248.798 366.75 249.722C366.75 250.45 366.554 251.145 366.162 251.808C365.77 252.47 365.322 253.049 364.818 253.544C364.314 254.029 363.656 254.617 362.844 255.308L366.974 255.308L366.974 256.932L360.058 256.932L360.058 255.476L360.786 254.86ZM369.741 257.17C369.386 257.17 369.092 257.062 368.859 256.848C368.635 256.624 368.523 256.348 368.523 256.022C368.523 255.695 368.635 255.424 368.859 255.21C369.092 254.986 369.386 254.874 369.741 254.874C370.086 254.874 370.371 254.986 370.595 255.21C370.819 255.424 370.931 255.695 370.931 256.022C370.931 256.348 370.819 256.624 370.595 256.848C370.371 257.062 370.086 257.17 369.741 257.17ZM372.754 249.554C372.8 248.62 373.127 247.902 373.734 247.398C374.35 246.884 375.157 246.628 376.156 246.628C376.837 246.628 377.42 246.749 377.906 246.992C378.391 247.225 378.755 247.547 378.998 247.958C379.25 248.359 379.376 248.816 379.376 249.33C379.376 249.918 379.222 250.417 378.914 250.828C378.615 251.229 378.256 251.5 377.836 251.64L377.836 251.696C378.377 251.864 378.797 252.162 379.096 252.592C379.404 253.021 379.558 253.572 379.558 254.244C379.558 254.804 379.427 255.303 379.166 255.742C378.914 256.18 378.536 256.526 378.032 256.778C377.537 257.02 376.94 257.142 376.24 257.142C375.185 257.142 374.326 256.876 373.664 256.344C373.001 255.812 372.651 255.028 372.614 253.992L374.518 253.992C374.536 254.449 374.69 254.818 374.98 255.098C375.278 255.368 375.684 255.504 376.198 255.504C376.674 255.504 377.038 255.373 377.29 255.112C377.551 254.841 377.682 254.496 377.682 254.076C377.682 253.516 377.504 253.114 377.15 252.872C376.795 252.629 376.244 252.508 375.498 252.508L375.092 252.508L375.092 250.898L375.498 250.898C376.823 250.898 377.486 250.454 377.486 249.568C377.486 249.166 377.364 248.854 377.122 248.63C376.888 248.406 376.548 248.294 376.1 248.294C375.661 248.294 375.32 248.415 375.078 248.658C374.844 248.891 374.709 249.19 374.672 249.554L372.754 249.554ZM383.815 254.202C383.889 254.612 384.057 254.93 384.319 255.154C384.589 255.368 384.949 255.476 385.397 255.476C385.975 255.476 386.395 255.238 386.657 254.762C386.918 254.276 387.049 253.464 387.049 252.326C386.834 252.624 386.531 252.858 386.139 253.026C385.756 253.194 385.341 253.278 384.893 253.278C384.295 253.278 383.754 253.156 383.269 252.914C382.793 252.662 382.415 252.293 382.135 251.808C381.855 251.313 381.715 250.716 381.715 250.016C381.715 248.98 382.023 248.158 382.639 247.552C383.255 246.936 384.095 246.628 385.159 246.628C386.484 246.628 387.417 247.052 387.959 247.902C388.509 248.751 388.785 250.03 388.785 251.738C388.785 252.951 388.677 253.945 388.463 254.72C388.257 255.494 387.898 256.082 387.385 256.484C386.881 256.885 386.19 257.086 385.313 257.086C384.622 257.086 384.034 256.955 383.549 256.694C383.063 256.423 382.69 256.073 382.429 255.644C382.177 255.205 382.032 254.724 381.995 254.202L383.815 254.202ZM385.299 251.682C385.784 251.682 386.167 251.532 386.447 251.234C386.727 250.935 386.867 250.534 386.867 250.03C386.867 249.479 386.717 249.054 386.419 248.756C386.129 248.448 385.733 248.294 385.229 248.294C384.725 248.294 384.323 248.452 384.025 248.77C383.735 249.078 383.591 249.488 383.591 250.002C383.591 250.496 383.731 250.902 384.011 251.22C384.3 251.528 384.729 251.682 385.299 251.682Z" fill="#232D42"/>
</g>
<g filter="url(#filter2_d_384_95059)">
<rect x="468.838" y="145.294" width="274.996" height="197.82" rx="20" fill="white"/>
<rect x="469.338" y="145.794" width="273.996" height="196.82" rx="19.5" stroke="#F1ECFF"/>
</g>
<path d="M497.47 281.208C509.213 281.208 509.213 263.974 521.073 263.974C532.816 263.974 532.816 257.393 544.676 257.393C556.419 257.393 556.419 233.208 568.28 233.208C580.023 233.208 580.023 245.507 591.883 245.507C603.626 245.507 603.626 268.293 615.369 268.293C627.23 268.293 627.23 233.414 638.973 233.414C650.833 233.414 650.833 271.789 662.576 271.789C674.436 271.789 674.436 267.306 686.179 267.306C698.04 267.306 698.04 281.208 709.783 281.208" stroke="#7951F9" stroke-width="2"/>
<path d="M497.47 281.208C509.213 281.208 509.213 268.401 521.073 268.401C532.816 268.401 532.816 279.623 544.676 279.623C556.419 279.623 556.419 275.841 568.28 275.841C580.023 275.841 580.023 260.391 591.883 260.391C603.626 260.391 603.626 242.542 615.369 242.542C627.23 242.542 627.23 266.49 638.973 266.49C650.833 266.49 650.833 258.073 662.576 258.073C674.436 258.073 674.436 265.351 686.179 265.351C698.04 265.351 698.04 281.208 709.783 281.208" stroke="#F25368" stroke-width="2"/>
<path d="M500.893 281.208C500.893 282.18 500.159 282.875 499.365 282.875C498.572 282.875 497.838 282.18 497.838 281.208C497.838 280.237 498.572 279.542 499.365 279.542C500.159 279.542 500.893 280.237 500.893 281.208Z" fill="white" stroke="#1F78B4" stroke-width="2"/>
<circle cx="522.718" cy="263.708" r="1.5" fill="white" stroke="#7951F9" stroke-width="2"/>
<circle cx="546.729" cy="257.042" r="1.5" fill="white" stroke="#7951F9" stroke-width="2"/>
<circle cx="570.109" cy="233.042" r="1.5" fill="white" stroke="#7951F9" stroke-width="2"/>
<circle cx="594.12" cy="245.042" r="1.5" fill="white" stroke="#7951F9" stroke-width="2"/>
<path d="M619.055 267.875C619.055 268.847 618.322 269.542 617.528 269.542C616.734 269.542 616 268.847 616 267.875C616 266.903 616.734 266.208 617.528 266.208C618.322 266.208 619.055 266.903 619.055 267.875Z" fill="white" stroke="#7951F9" stroke-width="2"/>
<circle cx="640.88" cy="233.042" r="1.5" fill="white" stroke="#7951F9" stroke-width="2"/>
<circle cx="664.892" cy="271.042" r="1.5" fill="white" stroke="#7951F9" stroke-width="2"/>
<path d="M689.826 267.208C689.826 268.18 689.093 268.875 688.299 268.875C687.505 268.875 686.771 268.18 686.771 267.208C686.771 266.237 687.505 265.542 688.299 265.542C689.093 265.542 689.826 266.237 689.826 267.208Z" fill="white" stroke="#7951F9" stroke-width="2"/>
<path d="M713.838 281.208C713.838 282.18 713.104 282.875 712.31 282.875C711.517 282.875 710.783 282.18 710.783 281.208C710.783 280.237 711.517 279.542 712.31 279.542C713.104 279.542 713.838 280.237 713.838 281.208Z" fill="white" stroke="#7951F9" stroke-width="2"/>
<circle cx="499.338" cy="281.042" r="1.5" fill="white" stroke="#F25368" stroke-width="2"/>
<circle cx="522.718" cy="267.708" r="1.5" fill="white" stroke="#F25368" stroke-width="2"/>
<circle cx="546.729" cy="279.042" r="1.5" fill="white" stroke="#F25368" stroke-width="2"/>
<circle cx="570.109" cy="275.042" r="1.5" fill="white" stroke="#F25368" stroke-width="2"/>
<circle cx="594.121" cy="259.708" r="1.5" fill="white" stroke="#F25368" stroke-width="2"/>
<circle cx="617.5" cy="241.708" r="1.5" fill="white" stroke="#F25368" stroke-width="2"/>
<circle cx="640.88" cy="265.708" r="1.5" fill="white" stroke="#F25368" stroke-width="2"/>
<circle cx="664.892" cy="257.708" r="1.5" fill="white" stroke="#F25368" stroke-width="2"/>
<circle cx="688.271" cy="265.042" r="1.5" fill="white" stroke="#F25368" stroke-width="2"/>
<circle cx="712.283" cy="281.042" r="1.5" fill="white" stroke="#F25368" stroke-width="2"/>
<g filter="url(#filter3_d_384_95059)">
<path d="M502.838 236.294C502.838 234.085 504.629 232.294 506.838 232.294L538.838 232.294C541.047 232.294 542.838 234.085 542.838 236.294L542.838 249.894C542.838 252.103 541.047 253.894 538.838 253.894L528.552 253.894L522.838 259.294L517.124 253.894L506.838 253.894C504.629 253.894 502.838 252.103 502.838 249.894L502.838 236.294Z" fill="#F7F4FD"/>
<path d="M528.552 253.394L528.353 253.394L528.209 253.53L522.838 258.606L517.467 253.53L517.322 253.394L517.124 253.394L506.838 253.394C504.905 253.394 503.338 251.827 503.338 249.894L503.338 236.294C503.338 234.361 504.905 232.794 506.838 232.794L538.838 232.794C540.771 232.794 542.338 234.361 542.338 236.294L542.338 249.894C542.338 251.827 540.771 253.394 538.838 253.394L528.552 253.394Z" stroke="#E8E0FF"/>
</g>
<path d="M518.172 244.833C518.172 245.166 518.089 245.479 517.922 245.773C517.762 246.066 517.522 246.313 517.202 246.513C516.889 246.713 516.515 246.833 516.082 246.873L516.082 247.683L515.432 247.683L515.432 246.873C514.805 246.813 514.299 246.616 513.912 246.283C513.525 245.949 513.332 245.509 513.332 244.963L514.552 244.963C514.572 245.223 514.655 245.439 514.802 245.613C514.949 245.779 515.159 245.886 515.432 245.933L515.432 243.733C514.985 243.619 514.622 243.506 514.342 243.393C514.062 243.273 513.822 243.086 513.622 242.833C513.429 242.579 513.332 242.233 513.332 241.793C513.332 241.239 513.525 240.783 513.912 240.423C514.299 240.056 514.805 239.843 515.432 239.783L515.432 238.973L516.082 238.973L516.082 239.783C516.669 239.836 517.139 240.023 517.492 240.343C517.852 240.656 518.055 241.089 518.102 241.643L516.882 241.643C516.862 241.436 516.782 241.253 516.642 241.093C516.502 240.926 516.315 240.813 516.082 240.753L516.082 242.913C516.529 243.019 516.892 243.133 517.172 243.253C517.452 243.366 517.689 243.549 517.882 243.803C518.075 244.049 518.172 244.393 518.172 244.833ZM514.492 241.733C514.492 242.006 514.572 242.219 514.732 242.373C514.899 242.526 515.132 242.649 515.432 242.743L515.432 240.723C515.145 240.756 514.915 240.859 514.742 241.033C514.575 241.206 514.492 241.439 514.492 241.733ZM516.082 245.933C516.375 245.886 516.605 245.769 516.772 245.583C516.939 245.389 517.022 245.159 517.022 244.893C517.022 244.626 516.939 244.419 516.772 244.273C516.612 244.119 516.382 243.996 516.082 243.903L516.082 245.933ZM520.866 245.263C521.506 244.709 522.009 244.256 522.376 243.903C522.749 243.543 523.059 243.169 523.306 242.783C523.552 242.396 523.676 242.009 523.676 241.623C523.676 241.223 523.579 240.909 523.386 240.683C523.199 240.456 522.902 240.343 522.496 240.343C522.102 240.343 521.796 240.469 521.576 240.723C521.362 240.969 521.249 241.303 521.236 241.723L520.136 241.723C520.156 240.963 520.382 240.383 520.816 239.983C521.256 239.576 521.812 239.373 522.486 239.373C523.212 239.373 523.779 239.573 524.186 239.973C524.599 240.373 524.806 240.906 524.806 241.573C524.806 242.053 524.682 242.516 524.436 242.963C524.196 243.403 523.906 243.799 523.566 244.153C523.232 244.499 522.806 244.903 522.286 245.363L521.836 245.763L525.006 245.763L525.006 246.713L520.146 246.713L520.146 245.883L520.866 245.263ZM531.107 240.503L527.757 240.503L527.757 242.493C527.897 242.306 528.104 242.149 528.377 242.023C528.657 241.896 528.954 241.833 529.267 241.833C529.827 241.833 530.281 241.953 530.627 242.193C530.981 242.433 531.231 242.736 531.377 243.103C531.531 243.469 531.607 243.856 531.607 244.263C531.607 244.756 531.511 245.196 531.317 245.583C531.131 245.963 530.847 246.263 530.467 246.483C530.094 246.703 529.634 246.813 529.087 246.813C528.361 246.813 527.777 246.633 527.337 246.273C526.897 245.913 526.634 245.436 526.547 244.843L527.657 244.843C527.731 245.156 527.894 245.406 528.147 245.593C528.401 245.773 528.717 245.863 529.097 245.863C529.571 245.863 529.924 245.719 530.157 245.433C530.397 245.146 530.517 244.766 530.517 244.293C530.517 243.813 530.397 243.446 530.157 243.193C529.917 242.933 529.564 242.803 529.097 242.803C528.771 242.803 528.494 242.886 528.267 243.053C528.047 243.213 527.887 243.433 527.787 243.713L526.707 243.713L526.707 239.503L531.107 239.503L531.107 240.503Z" fill="#232D42"/>
<path d="M510.375 177.334L505.255 191.294L501.855 191.294L496.735 177.334L499.735 177.334L503.575 188.434L507.395 177.334L510.375 177.334ZM513.474 178.894C512.981 178.894 512.567 178.74 512.234 178.434C511.914 178.114 511.754 177.72 511.754 177.254C511.754 176.787 511.914 176.4 512.234 176.094C512.567 175.774 512.981 175.614 513.474 175.614C513.967 175.614 514.374 175.774 514.694 176.094C515.027 176.4 515.194 176.787 515.194 177.254C515.194 177.72 515.027 178.114 514.694 178.434C514.374 178.74 513.967 178.894 513.474 178.894ZM514.854 180.214L514.854 191.294L512.054 191.294L512.054 180.214L514.854 180.214ZM527.92 185.514C527.92 185.914 527.894 186.274 527.84 186.594L519.74 186.594C519.807 187.394 520.087 188.02 520.58 188.474C521.074 188.927 521.68 189.154 522.4 189.154C523.44 189.154 524.18 188.707 524.62 187.814L527.64 187.814C527.32 188.88 526.707 189.76 525.8 190.454C524.894 191.134 523.78 191.474 522.46 191.474C521.394 191.474 520.434 191.24 519.58 190.774C518.74 190.294 518.08 189.62 517.6 188.754C517.134 187.887 516.9 186.887 516.9 185.754C516.9 184.607 517.134 183.6 517.6 182.734C518.067 181.867 518.72 181.2 519.56 180.734C520.4 180.267 521.367 180.034 522.46 180.034C523.514 180.034 524.454 180.26 525.28 180.714C526.12 181.167 526.767 181.814 527.22 182.654C527.687 183.48 527.92 184.434 527.92 185.514ZM525.02 184.714C525.007 183.994 524.747 183.42 524.24 182.994C523.734 182.554 523.114 182.334 522.38 182.334C521.687 182.334 521.1 182.547 520.62 182.974C520.154 183.387 519.867 183.967 519.76 184.714L525.02 184.714ZM545.324 180.214L542.084 191.294L539.064 191.294L537.044 183.554L535.024 191.294L531.984 191.294L528.724 180.214L531.564 180.214L533.524 188.654L535.644 180.214L538.604 180.214L540.684 188.634L542.644 180.214L545.324 180.214ZM551.079 191.474C550.173 191.474 549.359 191.314 548.639 190.994C547.919 190.66 547.346 190.214 546.919 189.654C546.506 189.094 546.279 188.474 546.239 187.794L549.059 187.794C549.113 188.22 549.319 188.574 549.679 188.854C550.053 189.134 550.513 189.274 551.059 189.274C551.593 189.274 552.006 189.167 552.299 188.954C552.606 188.74 552.759 188.467 552.759 188.134C552.759 187.774 552.573 187.507 552.199 187.334C551.839 187.147 551.259 186.947 550.459 186.734C549.633 186.534 548.953 186.327 548.419 186.114C547.899 185.9 547.446 185.574 547.059 185.134C546.686 184.694 546.499 184.1 546.499 183.354C546.499 182.74 546.673 182.18 547.019 181.674C547.379 181.167 547.886 180.767 548.539 180.474C549.206 180.18 549.986 180.034 550.879 180.034C552.199 180.034 553.253 180.367 554.039 181.034C554.826 181.687 555.259 182.574 555.339 183.694L552.659 183.694C552.619 183.254 552.433 182.907 552.099 182.654C551.779 182.387 551.346 182.254 550.799 182.254C550.293 182.254 549.899 182.347 549.619 182.534C549.353 182.72 549.219 182.98 549.219 183.314C549.219 183.687 549.406 183.974 549.779 184.174C550.153 184.36 550.733 184.554 551.519 184.754C552.319 184.954 552.979 185.16 553.499 185.374C554.019 185.587 554.466 185.92 554.839 186.374C555.226 186.814 555.426 187.4 555.439 188.134C555.439 188.774 555.259 189.347 554.899 189.854C554.553 190.36 554.046 190.76 553.379 191.054C552.726 191.334 551.959 191.474 551.079 191.474Z" fill="#232D42"/>
<rect opacity="0.2" x="683.338" y="171.794" width="31" height="31" rx="3.5" stroke="#232D42"/>
<path fill-rule="evenodd" clip-rule="evenodd" d="M692.838 183.96C692.838 182.856 693.733 181.96 694.838 181.96L702.838 181.96C703.942 181.96 704.838 182.856 704.838 183.96L704.838 191.96C704.838 193.065 703.942 193.96 702.838 193.96L694.838 193.96C693.733 193.96 692.838 193.065 692.838 191.96L692.838 183.96Z" stroke="#232D42" stroke-width="2" stroke-linecap="round" stroke-linejoin="round"/>
<path d="M701.505 180.627L701.505 183.294" stroke="#232D42" stroke-width="2" stroke-linecap="round" stroke-linejoin="round"/>
<path d="M696.171 180.627L696.171 183.294" stroke="#232D42" stroke-width="2" stroke-linecap="round" stroke-linejoin="round"/>
<path d="M692.838 185.96L704.838 185.96" stroke="#232D42" stroke-width="2" stroke-linecap="round" stroke-linejoin="round"/>
<path opacity="0.5" d="M594.135 316.324L594.135 323.294L593.225 323.294L593.225 316.324L594.135 316.324ZM597.196 318.564L597.196 321.794C597.196 322.061 597.253 322.251 597.366 322.364C597.48 322.471 597.676 322.524 597.956 322.524L598.626 322.524L598.626 323.294L597.806 323.294C597.3 323.294 596.92 323.177 596.666 322.944C596.413 322.711 596.286 322.327 596.286 321.794L596.286 318.564L595.576 318.564L595.576 317.814L596.286 317.814L596.286 316.434L597.196 316.434L597.196 317.814L598.626 317.814L598.626 318.564L597.196 318.564ZM605.129 320.344C605.129 320.517 605.119 320.701 605.099 320.894L600.719 320.894C600.752 321.434 600.936 321.857 601.269 322.164C601.609 322.464 602.019 322.614 602.499 322.614C602.892 322.614 603.219 322.524 603.479 322.344C603.746 322.157 603.932 321.911 604.039 321.604L605.019 321.604C604.872 322.131 604.579 322.561 604.139 322.894C603.699 323.221 603.152 323.384 602.499 323.384C601.979 323.384 601.512 323.267 601.099 323.034C600.692 322.801 600.372 322.471 600.139 322.044C599.906 321.611 599.789 321.111 599.789 320.544C599.789 319.977 599.902 319.481 600.129 319.054C600.356 318.627 600.672 318.301 601.079 318.074C601.492 317.841 601.966 317.724 602.499 317.724C603.019 317.724 603.479 317.837 603.879 318.064C604.279 318.291 604.586 318.604 604.799 319.004C605.019 319.397 605.129 319.844 605.129 320.344ZM604.189 320.154C604.189 319.807 604.112 319.511 603.959 319.264C603.806 319.011 603.596 318.821 603.329 318.694C603.069 318.561 602.779 318.494 602.459 318.494C601.999 318.494 601.606 318.641 601.279 318.934C600.959 319.227 600.776 319.634 600.729 320.154L604.189 320.154ZM613.32 317.714C613.747 317.714 614.127 317.804 614.46 317.984C614.793 318.157 615.057 318.421 615.25 318.774C615.443 319.127 615.54 319.557 615.54 320.064L615.54 323.294L614.64 323.294L614.64 320.194C614.64 319.647 614.503 319.231 614.23 318.944C613.963 318.651 613.6 318.504 613.14 318.504C612.667 318.504 612.29 318.657 612.01 318.964C611.73 319.264 611.59 319.701 611.59 320.274L611.59 323.294L610.69 323.294L610.69 320.194C610.69 319.647 610.553 319.231 610.28 318.944C610.013 318.651 609.65 318.504 609.19 318.504C608.717 318.504 608.34 318.657 608.06 318.964C607.78 319.264 607.64 319.701 607.64 320.274L607.64 323.294L606.73 323.294L606.73 317.814L607.64 317.814L607.64 318.604C607.82 318.317 608.06 318.097 608.36 317.944C608.667 317.791 609.003 317.714 609.37 317.714C609.83 317.714 610.237 317.817 610.59 318.024C610.943 318.231 611.207 318.534 611.38 318.934C611.533 318.547 611.787 318.247 612.14 318.034C612.493 317.821 612.887 317.714 613.32 317.714ZM622.953 318.694L622.573 320.494L623.953 320.494L623.953 321.294L622.403 321.294L621.973 323.294L621.103 323.294L621.533 321.294L619.433 321.294L619.003 323.294L618.133 323.294L618.563 321.294L616.993 321.294L616.993 320.494L618.733 320.494L619.113 318.694L617.563 318.694L617.563 317.894L619.283 317.894L619.713 315.894L620.583 315.894L620.153 317.894L622.253 317.894L622.683 315.894L623.553 315.894L623.123 317.894L624.513 317.894L624.513 318.694L622.953 318.694ZM622.083 318.694L619.983 318.694L619.603 320.494L621.703 320.494L622.083 318.694ZM625.971 322.564C626.818 321.884 627.481 321.327 627.961 320.894C628.441 320.454 628.845 319.997 629.171 319.524C629.505 319.044 629.671 318.574 629.671 318.114C629.671 317.681 629.565 317.341 629.351 317.094C629.145 316.841 628.808 316.714 628.341 316.714C627.888 316.714 627.535 316.857 627.281 317.144C627.035 317.424 626.901 317.801 626.881 318.274L626.001 318.274C626.028 317.527 626.255 316.951 626.681 316.544C627.108 316.137 627.658 315.934 628.331 315.934C629.018 315.934 629.561 316.124 629.961 316.504C630.368 316.884 630.571 317.407 630.571 318.074C630.571 318.627 630.405 319.167 630.071 319.694C629.745 320.214 629.371 320.674 628.951 321.074C628.531 321.467 627.995 321.927 627.341 322.454L630.781 322.454L630.781 323.214L625.971 323.214L625.971 322.564Z" fill="#232D42"/>
<circle cx="578.838" cy="319.294" r="4" fill="#F25368"/>
<path opacity="0.5" d="M517.136 316.324L517.136 323.294L516.226 323.294L516.226 316.324L517.136 316.324ZM520.197 318.564L520.197 321.794C520.197 322.061 520.254 322.251 520.367 322.364C520.481 322.471 520.677 322.524 520.957 322.524L521.627 322.524L521.627 323.294L520.807 323.294C520.301 323.294 519.921 323.178 519.667 322.944C519.414 322.711 519.287 322.328 519.287 321.794L519.287 318.564L518.577 318.564L518.577 317.814L519.287 317.814L519.287 316.434L520.197 316.434L520.197 317.814L521.627 317.814L521.627 318.564L520.197 318.564ZM528.13 320.344C528.13 320.518 528.12 320.701 528.1 320.894L523.72 320.894C523.753 321.434 523.936 321.858 524.27 322.164C524.61 322.464 525.02 322.614 525.5 322.614C525.893 322.614 526.22 322.524 526.48 322.344C526.746 322.158 526.933 321.911 527.04 321.604L528.02 321.604C527.873 322.131 527.58 322.561 527.14 322.894C526.7 323.221 526.153 323.384 525.5 323.384C524.98 323.384 524.513 323.268 524.1 323.034C523.693 322.801 523.373 322.471 523.14 322.044C522.906 321.611 522.79 321.111 522.79 320.544C522.79 319.978 522.903 319.481 523.13 319.054C523.356 318.628 523.673 318.301 524.08 318.074C524.493 317.841 524.966 317.724 525.5 317.724C526.02 317.724 526.48 317.838 526.88 318.064C527.28 318.291 527.586 318.604 527.8 319.004C528.02 319.398 528.13 319.844 528.13 320.344ZM527.19 320.154C527.19 319.808 527.113 319.511 526.96 319.264C526.806 319.011 526.596 318.821 526.33 318.694C526.07 318.561 525.78 318.494 525.46 318.494C525 318.494 524.606 318.641 524.28 318.934C523.96 319.228 523.776 319.634 523.73 320.154L527.19 320.154ZM536.321 317.714C536.748 317.714 537.128 317.804 537.461 317.984C537.794 318.158 538.058 318.421 538.251 318.774C538.444 319.128 538.541 319.558 538.541 320.064L538.541 323.294L537.641 323.294L537.641 320.194C537.641 319.648 537.504 319.231 537.231 318.944C536.964 318.651 536.601 318.504 536.141 318.504C535.668 318.504 535.291 318.658 535.011 318.964C534.731 319.264 534.591 319.701 534.591 320.274L534.591 323.294L533.691 323.294L533.691 320.194C533.691 319.648 533.554 319.231 533.281 318.944C533.014 318.651 532.651 318.504 532.191 318.504C531.718 318.504 531.341 318.658 531.061 318.964C530.781 319.264 530.641 319.701 530.641 320.274L530.641 323.294L529.731 323.294L529.731 317.814L530.641 317.814L530.641 318.604C530.821 318.318 531.061 318.098 531.361 317.944C531.668 317.791 532.004 317.714 532.371 317.714C532.831 317.714 533.238 317.818 533.591 318.024C533.944 318.231 534.208 318.534 534.381 318.934C534.534 318.548 534.788 318.248 535.141 318.034C535.494 317.821 535.888 317.714 536.321 317.714ZM545.954 318.694L545.574 320.494L546.954 320.494L546.954 321.294L545.404 321.294L544.974 323.294L544.104 323.294L544.534 321.294L542.434 321.294L542.004 323.294L541.134 323.294L541.564 321.294L539.994 321.294L539.994 320.494L541.734 320.494L542.114 318.694L540.564 318.694L540.564 317.894L542.284 317.894L542.714 315.894L543.584 315.894L543.154 317.894L545.254 317.894L545.684 315.894L546.554 315.894L546.124 317.894L547.514 317.894L547.514 318.694L545.954 318.694ZM545.084 318.694L542.984 318.694L542.604 320.494L544.704 320.494L545.084 318.694ZM548.842 316.894L548.842 316.064L550.722 316.064L550.722 323.294L549.802 323.294L549.802 316.894L548.842 316.894Z" fill="#232D42"/>
<circle cx="500.839" cy="319.294" r="4" fill="#7951F9"/>
<defs>
<filter id="filter0_d_384_95059" x="-5.77051" y="0.892456" width="534.997" height="457.82" filterUnits="userSpaceOnUse" color-interpolation-filters="sRGB">
<feFlood flood-opacity="0" result="BackgroundImageFix"/>
<feColorMatrix in="SourceAlpha" type="matrix" values="0 0 0 0 0 0 0 0 0 0 0 0 0 0 0 0 0 0 127 0" result="hardAlpha"/>
<feOffset dx="-40" dy="40"/>
<feGaussianBlur stdDeviation="65"/>
<feColorMatrix type="matrix" values="0 0 0 0 0.62862 0 0 0 0 0.557604 0 0 0 0 0.841667 0 0 0 0.18 0"/>
<feBlend mode="normal" in2="BackgroundImageFix" result="effect1_dropShadow_384_95059"/>
<feBlend mode="normal" in="SourceGraphic" in2="effect1_dropShadow_384_95059" result="shape"/>
</filter>
<filter id="filter1_d_384_95059" x="335.229" y="120.072" width="66" height="53" filterUnits="userSpaceOnUse" color-interpolation-filters="sRGB">
<feFlood flood-opacity="0" result="BackgroundImageFix"/>
<feColorMatrix in="SourceAlpha" type="matrix" values="0 0 0 0 0 0 0 0 0 0 0 0 0 0 0 0 0 0 127 0" result="hardAlpha"/>
<feOffset dy="6"/>
<feGaussianBlur stdDeviation="5"/>
<feColorMatrix type="matrix" values="0 0 0 0 0.863571 0 0 0 0 0.82875 0 0 0 0 0.975 0 0 0 0.4 0"/>
<feBlend mode="normal" in2="BackgroundImageFix" result="effect1_dropShadow_384_95059"/>
<feBlend mode="normal" in="SourceGraphic" in2="effect1_dropShadow_384_95059" result="shape"/>
</filter>
<filter id="filter2_d_384_95059" x="278.838" y="75.2942" width="534.997" height="457.82" filterUnits="userSpaceOnUse" color-interpolation-filters="sRGB">
<feFlood flood-opacity="0" result="BackgroundImageFix"/>
<feColorMatrix in="SourceAlpha" type="matrix" values="0 0 0 0 0 0 0 0 0 0 0 0 0 0 0 0 0 0 127 0" result="hardAlpha"/>
<feOffset dx="-60" dy="60"/>
<feGaussianBlur stdDeviation="65"/>
<feColorMatrix type="matrix" values="0 0 0 0 0.62862 0 0 0 0 0.557604 0 0 0 0 0.841667 0 0 0 0.3 0"/>
<feBlend mode="normal" in2="BackgroundImageFix" result="effect1_dropShadow_384_95059"/>
<feBlend mode="normal" in="SourceGraphic" in2="effect1_dropShadow_384_95059" result="shape"/>
</filter>
<filter id="filter3_d_384_95059" x="492.838" y="228.294" width="60" height="47" filterUnits="userSpaceOnUse" color-interpolation-filters="sRGB">
<feFlood flood-opacity="0" result="BackgroundImageFix"/>
<feColorMatrix in="SourceAlpha" type="matrix" values="0 0 0 0 0 0 0 0 0 0 0 0 0 0 0 0 0 0 127 0" result="hardAlpha"/>
<feOffset dy="6"/>
<feGaussianBlur stdDeviation="5"/>
<feColorMatrix type="matrix" values="0 0 0 0 0.863571 0 0 0 0 0.82875 0 0 0 0 0.975 0 0 0 0.4 0"/>
<feBlend mode="normal" in2="BackgroundImageFix" result="effect1_dropShadow_384_95059"/>
<feBlend mode="normal" in="SourceGraphic" in2="effect1_dropShadow_384_95059" result="shape"/>
</filter>
</defs>
</svg>
