<svg width="47" height="80" viewBox="0 0 47 80" fill="none" xmlns="http://www.w3.org/2000/svg">
<path d="M12.9545 72.4738L0.170946 65.11C-0.0817338 64.9656 -0.0507859 64.7078 0.243148 64.5376L1.14558 64.0219C1.29597 63.9383 1.46381 63.8911 1.63572 63.8839C1.80763 63.8767 1.97884 63.9099 2.13566 63.9806L14.9192 71.3702C15.1719 71.5146 15.1409 71.7725 14.847 71.9426L13.9446 72.4583C13.7918 72.5367 13.623 72.5788 13.4513 72.5815C13.2797 72.5842 13.1096 72.5473 12.9545 72.4738Z" fill="#F2F2F2"/>
<path d="M46.2207 67.4769L31.1785 58.7981L33.6228 57.3903C34.0096 57.1634 34.0508 56.8231 33.7156 56.6271L19.6945 48.5672C19.4864 48.4722 19.2588 48.4277 19.0302 48.4376C18.8016 48.4475 18.5787 48.5113 18.3795 48.6239L15.9559 50.0214L1.67687 41.7706C1.55418 41.7154 1.4202 41.6899 1.28581 41.6962C1.15141 41.7025 1.02039 41.7403 0.903363 41.8067L0.38769 42.0955C0.155637 42.2244 0.135002 42.4255 0.330958 42.539L14.6099 50.7897L10.3763 53.2495C9.98952 53.4764 9.94827 53.8167 10.2835 54.0127L24.2995 62.0675C24.5075 62.1621 24.7347 62.2067 24.9631 62.1977C25.1914 62.1888 25.4144 62.1265 25.6144 62.0159L29.8532 59.5665L44.8954 68.2452C45.018 68.3 45.1516 68.3258 45.2858 68.3204C45.42 68.315 45.5511 68.2787 45.6689 68.2143L46.1846 67.9255C46.3909 67.7915 46.4167 67.5903 46.2207 67.4769Z" fill="#F2F2F2"/>
<path d="M32.1222 55.2141L31.9933 55.8948L31.6478 56.5497L30.8588 57.1272L30.2916 57.5398L27.7132 58.9733L24.4284 61.036L11.9233 53.796C11.9055 53.7797 11.8917 53.7597 11.8828 53.7374C11.8739 53.7151 11.8701 53.691 11.8717 53.6671C11.8757 53.5917 11.8973 53.5183 11.935 53.4529C11.9726 53.3875 12.0251 53.3319 12.0883 53.2906L18.1423 49.784L18.4156 49.6293C18.781 49.4018 19.0715 49.0718 19.251 48.6805C19.4339 48.3412 19.4836 47.9458 19.3902 47.5718L15.8888 37.4801L16.3013 37.083L28.8374 44.3024L28.791 45.2461L30.2297 49.1188L31.3538 52.4398L32.0706 54.3426L32.1222 55.2141Z" fill="#CCCCCC"/>
<path d="M30.8588 57.1273L30.2916 57.5398L27.7132 58.9734L24.4284 61.0361L11.9233 53.7961C11.9055 53.7798 11.8917 53.7598 11.8828 53.7375C11.8739 53.7152 11.8701 53.6911 11.8717 53.6671C11.8757 53.5918 11.8973 53.5184 11.935 53.453C11.9726 53.3876 12.0251 53.332 12.0883 53.2907L18.1423 49.7841L30.8588 57.1273Z" fill="#E6E6E6"/>
<path d="M30.9257 57.3748L24.6087 61.0309C24.4901 61.0979 24.3921 61.0309 24.3921 60.9071C24.3979 60.8315 24.4203 60.7581 24.4578 60.6922C24.4952 60.6262 24.5467 60.5693 24.6087 60.5255L30.936 56.8643C31.3012 56.6364 31.5916 56.3066 31.7714 55.9154C31.9543 55.5761 32.004 55.1807 31.9106 54.8067L28.4247 44.715L28.8424 44.3179L32.3489 54.4097C32.4788 54.9301 32.4146 55.4801 32.1685 55.9567C31.909 56.5453 31.4752 57.0403 30.9257 57.3748Z" fill="#A6A6A6"/>
<path d="M45.179 24.8874L2.25949 0.135104C2.1596 0.06173 2.04193 0.016351 1.91864 0.00365946C1.79535 -0.00903208 1.67091 0.0114244 1.55817 0.0629096L0.702148 0.578583C0.813785 0.527347 0.936988 0.506559 1.05925 0.518333C1.18152 0.530107 1.2985 0.574026 1.39831 0.645623L44.3178 25.4031C44.603 25.5872 44.8403 25.8367 45.0098 26.1309C45.1793 26.425 45.2761 26.7554 45.2924 27.0945L45.1996 60.0357C45.2121 60.1563 45.1925 60.278 45.1427 60.3885C45.0928 60.499 45.0146 60.5944 44.916 60.6648L45.772 60.1491C45.8716 60.0793 45.9508 59.9842 46.0016 59.8737C46.0523 59.7631 46.0728 59.6411 46.0608 59.52L46.1536 26.5788C46.1353 26.2402 46.0375 25.9106 45.8682 25.6168C45.6989 25.3229 45.4628 25.0731 45.179 24.8874Z" fill="#595959"/>
<path d="M46.0762 53.7651V59.5355C46.0882 59.6566 46.0677 59.7786 46.017 59.8892C45.9662 59.9997 45.887 60.0948 45.7874 60.1646L44.9314 60.6803C45.0301 60.6099 45.1083 60.5145 45.1581 60.404C45.2079 60.2935 45.2276 60.1718 45.215 60.0512V54.2756L46.0762 53.7651Z" fill="#BFBFBF"/>
<path d="M45.2924 27.0893L45.1996 60.0306C45.1996 60.6545 44.7561 60.902 44.2147 60.5926L1.30033 35.8145C1.01403 35.6299 0.775841 35.3797 0.605461 35.0846C0.435081 34.7896 0.337416 34.4582 0.320557 34.118L0.413374 1.17678C0.413374 0.557971 0.856855 0.305286 1.39831 0.61469L44.3178 25.4031C44.6018 25.5873 44.8381 25.8362 45.0075 26.1292C45.1769 26.4223 45.2745 26.7513 45.2924 27.0893Z" fill="#333333"/>
<path d="M45.2151 54.2807V60.0511C45.2151 60.6751 44.7716 60.9226 44.2301 60.6132L1.30033 35.8145C1.01403 35.6298 0.775841 35.3796 0.605461 35.0846C0.435081 34.7896 0.337416 34.4582 0.320557 34.1179V28.3475L45.2151 54.2807Z" fill="#D9D9D9"/>
<path d="M44.1115 51.6869L1.88306 27.2388V2.80621L44.1115 27.2543V51.6869Z" fill="#7981F2"/>
<path d="M13.166 9.3398V11.2014L2.30078 4.92563V3.04858L13.166 9.3398Z" fill="#2A33B8"/>
<path d="M26.7488 17.2038V19.0448L15.8835 12.7691V10.9075L26.7488 17.2038Z" fill="#2A33B8"/>
<path d="M40.3318 25.068V26.8831L29.4666 20.6125V18.7716L40.3318 25.068Z" fill="#2A33B8"/>
<path d="M44.1116 27.2544V29.0696L43.0493 28.4559V26.6356L44.1116 27.2544Z" fill="#2A33B8"/>
<path d="M13.166 26.7851L2.30078 20.5145V8.04553L13.166 14.3161V26.7851Z" fill="#2A33B8"/>
<path d="M26.7488 34.6285L15.8835 28.3527V15.8889L26.7488 22.1595V34.6285Z" fill="#2A33B8"/>
<path d="M40.3318 42.4718L29.4666 36.1961V23.7271L40.3318 30.0029V42.4718Z" fill="#2A33B8"/>
<path d="M44.1116 32.1842V44.6531L43.0493 44.0395V31.5654L44.1116 32.1842Z" fill="#2A33B8"/>
<path d="M13.166 29.905V33.7725L2.30078 27.4813V23.6292L13.166 29.905Z" fill="#2A33B8"/>
<path d="M26.7488 37.7483V41.6365L15.8835 35.3452V31.4725L26.7488 37.7483Z" fill="#2A33B8"/>
<path d="M40.3318 45.5865V49.5004L29.4666 43.2041V39.3107L40.3318 45.5865Z" fill="#2A33B8"/>
<path d="M44.1116 47.7678V51.6869L43.0493 51.0681V47.1593L44.1116 47.7678Z" fill="#2A33B8"/>
<path d="M26.2022 79.9304L17.41 74.8561C17.245 74.7582 17.2656 74.588 17.4616 74.4746L26.0939 69.4932C26.1938 69.4366 26.3056 69.4044 26.4203 69.399C26.5349 69.3936 26.6493 69.4153 26.754 69.4622L35.5205 74.5364C35.6855 74.6344 35.6648 74.8046 35.474 74.918L26.8778 79.9046C26.7754 79.9624 26.6606 79.995 26.5431 79.9995C26.4256 80.0039 26.3087 79.9803 26.2022 79.9304Z" fill="#F2F2F2"/>
<path d="M26.527 75.0727L18.1267 70.2254L26.4755 65.4039L34.8758 70.2564L26.527 75.0727Z" fill="#F2F2F2"/>
<path d="M26.5271 74.5468L19.0447 70.2255L26.4807 65.9351L33.958 70.2564L26.5271 74.5468Z" fill="#E6E6E6"/>
<path d="M26.5271 79.3373V75.0727L34.8758 70.2563V74.5158L26.5271 79.3373Z" fill="#BFBFBF"/>
<path d="M18.1267 70.2253V74.49L26.527 79.3373V75.0727L18.1267 70.2253Z" fill="#E6E6E6"/>
<path d="M20.8702 71.2774L20.2772 70.9422L20.174 69.5705L19.9678 66.6518L20.5556 66.9406L20.7207 69.256L20.8702 71.2774Z" fill="#4D4D4D"/>
<path d="M20.5557 66.9406L19.9626 66.6518L27.2904 62.4233L27.8782 62.7069L20.5557 66.9406Z" fill="#737373"/>
<path d="M28.5125 71.4527L25.3411 73.2833L24.8409 73.5721L24.7997 73.5979L24.7945 73.5463L24.4799 73.3658L23.8869 73.0255L23.5775 72.845L22.9845 72.5046L22.6699 72.3241L22.0821 71.9787L21.7727 71.8033L21.1796 71.4578L20.8702 71.2773L20.7207 69.2559L20.5557 66.9405L27.8782 62.7068L27.9092 63.1245L27.9556 63.7227L27.9865 64.1404V64.1456L28.0278 64.7438L28.0587 65.1615L28.1051 65.7596L28.1309 66.1773L28.1722 66.7755L28.1876 66.9199L28.2031 67.1932L28.2495 67.7965L28.5125 71.4527Z" fill="#1F2125"/>
<path d="M21.7725 71.8034L21.1795 71.4579L21.0093 69.0961L20.8701 67.1933L21.458 67.4769L21.5508 68.7816L21.7725 71.8034Z" fill="#4D4D4D"/>
<path d="M21.458 67.4769L20.8701 67.1933L28.1978 62.9596L28.7857 63.2432L21.458 67.4769Z" fill="#737373"/>
<path d="M29.42 71.989L25.7587 74.1033L25.3874 73.8867L24.8408 73.5722L24.7996 73.5979L24.7944 73.5464L24.4799 73.3659L23.8868 73.0255L23.5774 72.8451L22.9844 72.5047L22.6698 72.3242L22.082 71.9787L21.7726 71.8034L21.5508 68.7815L21.458 67.4769L27.9555 63.7228L28.7806 63.2432L28.8115 63.6661L28.8579 64.2642L28.8889 64.6768L28.9301 65.2801L28.9611 65.6978L29.0075 66.296L29.0332 66.7137V66.7189L29.0797 67.3119V67.317L29.09 67.4408L29.42 71.989Z" fill="#1F2125"/>
<path d="M22.6697 72.3243L22.0819 71.9788L21.8395 68.6166L21.7725 67.7296L22.3603 68.0132L22.381 68.302L22.6697 72.3243Z" fill="#4D4D4D"/>
<path d="M22.3603 68.0132L21.7725 67.7296L29.1002 63.4959L29.688 63.7847L22.3603 68.0132Z" fill="#737373"/>
<path d="M30.3069 72.3603L26.527 74.5468L25.7586 74.1033L25.3874 73.8867L24.8407 73.5722L24.7995 73.5979L24.7943 73.5464L24.4798 73.3659L23.8868 73.0255L23.5773 72.845L22.9843 72.5047L22.6698 72.3242L22.381 68.302L22.3604 68.0132L28.0276 64.7438L29.6881 63.7847L29.719 64.2024L29.7654 64.8005L29.7912 65.2131V65.2182L29.8376 65.8164L29.8634 66.2341L29.9098 66.8323L29.9923 67.9616L30.3069 72.3603Z" fill="#1F2125"/>
<path d="M23.5775 72.845L22.9845 72.5046L22.675 68.2658L23.2681 68.5494L23.5775 72.845Z" fill="#4D4D4D"/>
<path d="M23.2678 68.5494L22.6799 68.2658L30.0025 64.0373L30.5904 64.3209L23.2678 68.5494Z" fill="#737373"/>
<path d="M31.1424 71.8807L30.307 72.3603L26.5271 74.5467L25.7588 74.1032L25.3875 73.8867L24.8409 73.5721L24.7996 73.5979L24.7945 73.5463L24.4799 73.3658L23.8869 73.0255L23.5775 72.845L23.2681 68.5494L27.1408 66.3166L28.1051 65.7597L28.9302 65.2801L29.7656 64.8005L30.5958 64.3209L30.6216 64.7386L30.668 65.3368L30.6989 65.7545L30.7402 66.3578L30.8949 68.4876L31.1424 71.8807Z" fill="#1F2125"/>
<path d="M24.4798 73.3658L23.8868 73.0255L23.5825 68.8021L24.1704 69.0857L24.4798 73.3658Z" fill="#4D4D4D"/>
<path d="M24.1704 69.0857L23.5825 68.8021L30.9102 64.5736L31.4981 64.8572L24.1704 69.0857Z" fill="#737373"/>
<path d="M31.9725 71.4011L31.1423 71.8807L30.3069 72.3603L26.527 74.5467L25.7587 74.1033L25.3874 73.8867L24.8408 73.5721L24.7995 73.5979L24.7944 73.5463L24.4798 73.3658L24.1704 69.0857L28.0534 66.8477L28.172 66.7755L29.0074 66.296L29.8377 65.8164L30.6679 65.3368L31.4981 64.8572L31.5239 65.2749L31.5703 65.8731V65.8783L31.7972 69.0084L31.9725 71.4011Z" fill="#1F2125"/>
<path d="M25.3875 73.8867L24.8409 73.5722L24.7996 73.5979L24.7945 73.5464L24.4902 69.3436L25.0729 69.6273L25.3411 73.2834L25.3875 73.8867Z" fill="#4D4D4D"/>
<path d="M25.073 69.6272L24.4851 69.3384L31.8128 65.1099L32.4007 65.3935L25.073 69.6272Z" fill="#737373"/>
<path d="M32.8029 70.9164L31.9727 71.4012L31.1425 71.8807L30.3071 72.3603L26.5272 74.5468L25.7588 74.1033L25.3876 73.8867L25.3411 73.2834L25.073 69.6272L28.2495 67.7966L28.9766 67.3738L29.0798 67.317L29.8172 66.889L29.91 66.8323L30.7402 66.3579L31.5705 65.8783L32.4007 65.3936L32.6998 69.5241L32.8029 70.9164Z" fill="#1F2125"/>
<path d="M27.1409 72.2726L28.2032 72.3706V72.845L26.4189 72.6903L28.2032 70.4832V70.9525L27.1409 72.2726Z" fill="#F2F2F2"/>
<path d="M29.0025 73.0255L28.6621 73.2215C28.9973 71.9787 29.25 71.0505 29.415 70.4265L29.7966 69.029L30.1369 68.8331L29.0025 73.0255Z" fill="#F2F2F2"/>
<path d="M31.5808 69.7098L30.5186 69.6118V69.1425L32.3028 69.2921L30.5186 71.5043V71.0299L31.5808 69.7098Z" fill="#F2F2F2"/>
<path d="M1.83154 65.9247L3.07948 65.373L4.39444 58.7311L3.14652 59.2829L1.83154 65.9247Z" fill="#733118"/>
<path d="M3.28564 58.597L4.52842 58.0452L5.88464 51.2229L4.63671 51.7747L3.28564 58.597Z" fill="#733118"/>
<path d="M4.77075 51.0888L6.01867 50.5371L7.36975 43.7147L6.12181 44.2613L4.77075 51.0888Z" fill="#733118"/>
<path d="M13.3825 64.4138L14.6305 63.862L4.52842 58.0452L3.28564 58.597L13.3825 64.4138Z" fill="#AB512E"/>
<path d="M6.26123 43.5806L7.50917 43.0288L8.86023 36.2065L7.61231 36.7531L6.26123 43.5806Z" fill="#733118"/>
<path d="M14.8728 56.9005L16.1207 56.3538L6.01867 50.537L4.77075 51.0888L14.8728 56.9005Z" fill="#AB512E"/>
<path d="M9.07143 29.3893L10.3194 28.8375L9.19519 28.1723L7.94727 28.7189L9.07143 29.3893Z" fill="#AB512E"/>
<path d="M7.74634 36.0724L8.99427 35.5206L10.3196 28.8375L9.07162 29.3893L7.74634 36.0724Z" fill="#733118"/>
<path d="M16.3633 49.3922L17.6112 48.8405L7.50917 43.0288L6.26123 43.5806L16.3633 49.3922Z" fill="#AB512E"/>
<path d="M17.8484 41.884L19.0963 41.3323L8.99427 35.5206L7.74634 36.0724L17.8484 41.884Z" fill="#AB512E"/>
<path d="M13.0576 72.4067L14.3055 71.8549L21.5456 35.3195L20.3028 35.8713L13.0576 72.4067Z" fill="#733118"/>
<path d="M0.702148 65.2544L1.83147 65.9247L3.15676 59.2829L13.2485 65.11L11.9232 71.7364L13.0474 72.4067L20.2668 35.8713L19.1736 35.2009L17.8483 41.9047L7.74625 36.0724L9.07153 29.3687L7.94737 28.6983L0.702148 65.2544ZM16.3631 49.3923L6.2508 43.5755L7.61218 36.748L17.7142 42.5596L16.3631 49.3923ZM14.8729 56.9005L4.77082 51.0888L6.12188 44.2613L16.2239 50.0781L14.8729 56.9005ZM3.28051 58.597L4.63674 51.7747L14.7388 57.5863L13.3825 64.4138L3.28051 58.597Z" fill="#8C3C1D"/>
<path d="M20.3029 35.8713L21.5457 35.3195L20.4215 34.6543L19.1736 35.2061L20.3029 35.8713Z" fill="#AB512E"/>
<path d="M25.2327 23.8096L25.9804 23.3043L26.7436 34.6285L25.9959 35.1338L25.2327 23.8096Z" fill="#BFBFBF"/>
<path d="M14.9399 17.8639L15.6877 17.3637L25.9805 23.3043L25.2328 23.8096L14.9399 17.8639Z" fill="white"/>
<path d="M25.2328 23.8096L25.996 35.1338L15.7083 29.1881L14.9399 17.8639L25.2328 23.8096Z" fill="#D9D9D9"/>
<path d="M19.7768 23.7684C19.7768 23.7271 19.7768 23.6756 19.715 23.6601C19.6957 23.6574 19.6762 23.6588 19.6575 23.6641C19.6389 23.6695 19.6216 23.6786 19.6067 23.691C19.4761 23.7851 19.3743 23.9137 19.3127 24.0623C19.3166 23.8664 19.339 23.6713 19.3798 23.4796C19.4313 23.2888 19.4777 23.098 19.5242 22.9072C19.6067 22.6082 19.6209 22.2945 19.5654 21.9893C19.5594 21.9313 19.538 21.8759 19.5036 21.8288C19.4692 21.7817 19.4229 21.7445 19.3695 21.7212C19.3385 21.7145 19.3064 21.7153 19.2757 21.7234C19.2451 21.7315 19.2168 21.7467 19.1932 21.7678C19.1696 21.7889 19.1513 21.8153 19.1398 21.8449C19.1283 21.8744 19.1239 21.9062 19.1271 21.9377C19.0975 21.92 19.0636 21.9107 19.0291 21.9107C18.9946 21.9107 18.9607 21.92 18.9311 21.9377C18.9083 21.9748 18.8975 22.018 18.9002 22.0615C18.9002 22.2471 18.9002 22.4328 18.9002 22.6184C18.8486 22.5566 18.7661 22.4947 18.6939 22.5308C18.6217 22.5669 18.6114 22.6648 18.6166 22.7422C18.6569 23.1068 18.669 23.4741 18.6527 23.8406C18.6302 24.0071 18.5922 24.1711 18.5392 24.3305C18.3719 24.7975 18.1393 25.2385 17.8482 25.6403C17.465 25.9448 17.0372 26.1883 16.5797 26.3622C15.8371 26.6768 15.0636 26.9088 14.3004 27.1564C13.8672 27.2956 13.4392 27.4451 13.0164 27.6153C12.9026 27.6538 12.7794 27.6538 12.6657 27.6153C12.0534 27.4888 11.4639 27.2697 10.9176 26.9656C10.6747 26.8182 10.4482 26.6453 10.242 26.4499C9.95842 26.1869 9.77278 25.8053 9.44275 25.6042C9.11272 25.4031 8.57642 25.2123 8.21544 25.6042C8.08765 25.7664 8.01147 25.9631 7.99676 26.1691C7.98205 26.375 8.02949 26.5806 8.13294 26.7593C8.35106 27.1089 8.64328 27.4064 8.98895 27.6308C10.1236 28.583 11.4523 29.2763 12.8823 29.6625C12.9284 29.6702 12.9754 29.6702 13.0215 29.6625C13.0569 29.648 13.0889 29.6262 13.1155 29.5987C13.1421 29.5712 13.1628 29.5385 13.1762 29.5027L13.2897 29.6264C13.3168 29.6642 13.3574 29.6901 13.4031 29.6986C13.4517 29.7039 13.5006 29.693 13.5424 29.6677C14.0219 29.4356 14.5067 29.2087 14.9759 28.9509C15.5528 28.6406 16.1107 28.2962 16.6467 27.9196C16.92 27.7236 18.6475 26.486 18.9157 26.321C19.0204 26.2618 19.1204 26.1945 19.2148 26.1199C19.2517 26.095 19.2818 26.0613 19.3024 26.0219C19.3255 25.9802 19.3412 25.9348 19.3488 25.8878C19.3849 25.7073 19.4365 25.532 19.4571 25.3721C19.4671 25.0589 19.5191 24.7484 19.6118 24.4491C19.6531 24.3459 19.7098 24.2531 19.7459 24.15C19.7872 24.0272 19.7978 23.8962 19.7768 23.7684Z" fill="#FFB78C"/>
<path d="M10.2886 26.2075C10.9318 26.6876 11.6091 27.1202 12.3152 27.5018C12.3152 27.5018 12.3616 27.5276 12.3616 27.5534C12.3667 27.5684 12.3667 27.5847 12.3616 27.5998C12.1559 28.1603 11.7989 28.6529 11.3303 29.023C11.1828 29.145 11.0042 29.2236 10.8146 29.2499C10.7302 29.2732 10.6411 29.2732 10.5568 29.2499C10.4949 29.219 10.4846 29.1674 10.4536 29.0952C10.4227 29.023 10.3247 28.8271 10.2525 28.6982C10.1012 28.4467 9.92868 28.2086 9.73685 27.9865C9.36646 27.6097 9.0219 27.2082 8.7055 26.785C8.60068 26.6298 8.53033 26.454 8.49922 26.2693C8.48003 26.1165 8.50322 25.9613 8.56626 25.8207C8.6275 25.6942 8.65079 25.5527 8.6333 25.4133C8.6299 25.4051 8.62814 25.3964 8.62814 25.3875C8.62814 25.3787 8.6299 25.3699 8.6333 25.3618C8.6333 25.3618 8.67972 25.3618 8.7055 25.3618C8.98957 25.409 9.26236 25.5086 9.50995 25.6557C9.68188 25.773 9.84399 25.904 9.99469 26.0476L10.2886 26.2075Z" fill="#4D4D4D"/>
<path d="M4.4769 59.8294C4.45651 59.9291 4.45964 60.0322 4.48602 60.1304C4.5124 60.2287 4.56131 60.3194 4.62887 60.3955C4.69643 60.4716 4.78079 60.5309 4.87525 60.5687C4.96971 60.6065 5.07167 60.6217 5.17306 60.6132C5.41811 60.6175 5.66161 60.5737 5.88983 60.4843C6.13736 60.3915 6.36426 60.2471 6.60663 60.144C7.63797 59.7005 8.86012 60.0563 9.93787 59.7314C10.1906 59.6541 10.4536 59.4942 10.4948 59.2158C10.4975 59.135 10.4838 59.0545 10.4546 58.9792C10.4253 58.9038 10.3811 58.8352 10.3246 58.7775C10.0898 58.5252 9.78723 58.3462 9.45314 58.2618C9.11402 58.1808 8.76925 58.1256 8.42179 58.0968C7.73079 58.0194 7.04494 57.9111 6.3591 57.8802C5.93138 57.8425 5.50056 57.897 5.09571 58.04C4.93585 58.1019 4.81724 58.1586 4.76567 58.3288C4.7141 58.499 4.62128 58.7775 4.56971 59.0043C4.50043 59.2737 4.46919 59.5514 4.4769 59.8294Z" fill="#1F2125"/>
<path d="M7.91125 37.5576C8.00434 36.9976 8.00434 36.4261 7.91125 35.8661C7.86484 35.6341 7.80295 35.2319 7.5709 35.1287C7.29472 35.0108 6.99227 34.9682 6.69425 35.005C6.34638 35.0464 6.00907 35.1513 5.699 35.3144C5.14615 35.582 4.66127 35.9717 4.2809 36.454C3.96851 36.8508 3.74285 37.3087 3.6185 37.7981C3.49414 38.2875 3.47386 38.7976 3.55896 39.2954C3.66982 39.7805 3.80754 40.2591 3.9715 40.7289C4.09331 41.1929 4.13861 41.6736 4.10558 42.1522C4.10558 42.7659 3.99213 43.3692 3.93025 43.9777C3.81239 45.1272 3.75902 46.2824 3.77039 47.4379C3.77039 48.0257 3.77039 48.6084 3.79617 49.1963C3.77135 49.7895 3.6867 50.3786 3.54349 50.9547C3.4003 52.1699 3.52349 53.4017 3.90447 54.5644C4.21903 55.8227 4.42014 57.1067 4.65735 58.3856C4.66621 58.4548 4.68902 58.5214 4.72439 58.5815C4.77048 58.6368 4.83126 58.6779 4.89972 58.7002C5.25171 58.8305 5.63545 58.8485 5.9981 58.7517C6.35442 58.6546 6.69996 58.5215 7.02945 58.3546C6.72398 56.9438 6.55133 55.5073 6.51378 54.0642C6.48284 53.1928 6.47251 52.3161 6.47251 51.4446C6.47251 51.0063 6.47251 50.568 6.47251 50.1348C6.45965 49.9356 6.45965 49.7358 6.47251 49.5366C6.47003 49.5126 6.47003 49.4884 6.47251 49.4644C6.50345 49.2943 6.56019 49.1344 6.59629 48.9488C6.62957 48.834 6.63525 48.7129 6.61284 48.5955C6.59044 48.4781 6.54059 48.3677 6.46737 48.2732C6.67397 48.1927 6.87396 48.0962 7.06553 47.9845C7.0974 47.9729 7.12459 47.9511 7.1429 47.9226C7.16316 47.8955 7.17563 47.8634 7.17898 47.8298C7.35934 46.9376 7.41661 46.025 7.34916 45.1173C7.31307 44.6893 7.20993 44.2819 7.16868 43.8539C7.13258 43.3854 7.13258 42.9147 7.16868 42.4461C7.28212 40.796 7.68951 39.1871 7.91125 37.5576Z" fill="#BFBFBF"/>
<path d="M12.8308 60.1027C12.6864 59.783 12.0676 59.685 11.7994 59.587C11.4436 59.4787 11.0775 59.3859 10.7165 59.3085C9.98188 59.165 9.23693 59.0805 8.48881 59.0559C8.04291 59.0212 7.59438 59.0648 7.16353 59.1848C7.00539 59.219 6.86672 59.3133 6.77677 59.4478C6.71107 59.6151 6.65933 59.7876 6.62207 59.9634C6.54641 60.2077 6.49121 60.4578 6.45706 60.7112C6.42331 60.9035 6.43389 61.1011 6.48799 61.2887C6.55431 61.4662 6.67337 61.6192 6.82916 61.727C6.98495 61.8349 7.17 61.8925 7.35948 61.8921C7.59691 61.8721 7.83181 61.8289 8.06081 61.7631C8.57566 61.7099 9.09504 61.7185 9.60783 61.7889C9.98806 61.8079 10.3692 61.7958 10.7475 61.7528C11.1256 61.7388 11.5001 61.6746 11.8613 61.562C12.1331 61.4609 12.371 61.2855 12.5479 61.0558C12.7248 60.826 12.8335 60.5511 12.8617 60.2625C12.8611 60.2078 12.8507 60.1537 12.8308 60.1027Z" fill="#4D4D4D"/>
<path d="M11.0621 35.8196C10.8982 36.0047 10.6885 36.1431 10.4539 36.221C10.2194 36.2989 9.96843 36.3134 9.72647 36.2631C8.78169 36.1356 7.88428 35.772 7.11717 35.206C6.91005 35.0362 6.67185 34.9083 6.41586 34.8295C5.65266 34.6542 5.38451 35.4123 5.08027 35.9331C4.63493 36.6497 4.30271 37.4306 4.09533 38.2485C3.90365 39.1946 4.01181 40.177 4.40474 41.0589C4.6259 41.4658 4.82555 41.8841 5.0029 42.312C5.20333 43.123 5.22095 43.9685 5.05447 44.7872C4.84232 46.3245 4.76469 47.8774 4.82243 49.4282C4.81547 49.809 4.83442 50.1897 4.87915 50.5679L5.0029 51.7642C5.09206 52.7485 5.27335 53.7222 5.54437 54.6726C5.79705 55.508 6.12708 56.3176 6.31272 57.1633C6.49836 58.009 6.53446 58.9734 6.64276 59.8758C6.64307 59.922 6.65746 59.9669 6.684 60.0047C6.71901 60.0427 6.7667 60.0665 6.81808 60.0717C7.4241 60.224 8.06554 60.1353 8.60747 59.8242C8.71254 59.7776 8.80485 59.7065 8.87665 59.6167C8.94845 59.527 8.99762 59.4213 9.02 59.3085C9.02006 59.2155 9.00437 59.1231 8.97359 59.0352C8.30011 56.5211 8.07665 53.9076 8.31353 51.3156C8.40511 50.742 8.57879 50.1845 8.82921 49.6603C9.06126 49.0724 9.27785 48.4846 9.47896 47.8864C9.89584 46.6908 10.1963 45.4578 10.3762 44.2045C10.5412 42.9462 10.5412 41.6777 10.7011 40.4246C10.8764 39.0529 11.2168 37.6967 11.2168 36.2992C11.2239 36.213 11.2139 36.1263 11.1874 36.0439C11.1608 35.9616 11.1182 35.8854 11.0621 35.8196Z" fill="#F2F2F2"/>
<path d="M4.93068 30.7351C5.25555 31.8696 5.85374 33.0092 5.62684 34.1695C5.44592 34.8569 5.11283 35.4949 4.65221 36.0362C4.60998 36.0872 4.58 36.1472 4.56456 36.2116C4.56144 36.2855 4.57931 36.3588 4.61611 36.423C5.05807 37.2534 5.79341 37.8895 6.6788 38.2072C7.56069 38.5168 8.48759 38.6788 9.42219 38.6868C9.96189 38.7525 10.5094 38.6761 11.0105 38.465C11.2973 36.5865 11.4695 34.6922 11.5261 32.7926C11.5177 32.4623 11.5648 32.1328 11.6654 31.818C11.8355 31.3591 12.2378 30.9775 12.2893 30.4876C12.2825 30.0166 12.0984 29.5654 11.7737 29.2242C10.663 27.829 9.43837 26.5284 8.11237 25.336C7.74312 24.9534 7.33724 24.608 6.90056 24.3047C6.78432 24.2246 6.64546 24.1839 6.50439 24.1885C6.36332 24.1932 6.22745 24.2429 6.11672 24.3305C5.95071 24.4552 5.81059 24.6111 5.70419 24.7894C5.49915 25.1156 5.32644 25.461 5.18852 25.8207V25.8672C4.57122 27.4177 4.48063 29.1281 4.93068 30.7351Z" fill="#1F2125"/>
<path d="M5.93638 24.4027C5.91586 24.4664 5.90893 24.5338 5.91603 24.6004C5.92314 24.667 5.94412 24.7314 5.97763 24.7894C6.08215 24.8973 6.22457 24.9601 6.37469 24.9647C7.05332 25.0831 7.67158 25.4285 8.12799 25.9445C8.276 26.1586 8.44912 26.3543 8.64367 26.5272C8.69212 26.5696 8.74854 26.602 8.80963 26.6223C8.87072 26.6427 8.93525 26.6507 8.99947 26.6458C9.32434 26.6046 9.17996 26.29 9.17996 26.0838C9.19803 25.7836 9.23942 25.4854 9.30373 25.1916C9.39655 24.5986 9.5203 24.0108 9.66469 23.428C9.41921 23.353 9.18631 23.2418 8.97369 23.098C8.63263 22.9024 8.30213 22.689 7.98359 22.4586C7.80785 22.313 7.61576 22.1884 7.4112 22.0873C7.19159 22.0006 6.95599 21.9619 6.7202 21.9738C6.52424 21.9738 6.32314 21.9481 6.24063 22.1698C6.20973 22.2734 6.19922 22.3819 6.20969 22.4895C6.2175 22.8966 6.19162 23.3037 6.13232 23.7065C6.09623 23.9076 6.02919 24.0984 5.97247 24.2995L5.93638 24.4027Z" fill="#FFB78C"/>
<path d="M11.2321 20.762C11.2579 20.8565 11.2579 20.9562 11.2321 21.0507C11.2321 21.1126 11.1702 21.1642 11.1547 21.2261C11.1455 21.3245 11.171 21.423 11.2269 21.5045L11.6704 22.3193C11.5415 22.4946 11.263 22.4895 11.1547 22.6545C11.0913 22.7464 11.0523 22.8528 11.0413 22.9639C10.9588 23.4125 10.8814 23.8612 10.7989 24.3098C10.36 24.4139 9.91588 24.4948 9.46845 24.5522C9.36346 24.5782 9.25372 24.5782 9.14873 24.5522C9.06653 24.5118 8.99432 24.4536 8.9373 24.382C8.78266 24.2114 8.64934 24.0227 8.54024 23.8199C8.51361 23.7218 8.44945 23.6382 8.36164 23.587C8.27383 23.5359 8.16942 23.5214 8.07098 23.5466C7.55418 23.5681 7.04204 23.4411 6.59515 23.1807C6.14827 22.9202 5.78535 22.5372 5.54934 22.0769C5.33329 21.608 5.26299 21.085 5.34758 20.5756C5.43216 20.0663 5.66772 19.594 6.02375 19.2201C6.597 18.6999 7.33833 18.4033 8.11222 18.3847C8.6636 18.3457 9.21703 18.423 9.73661 18.6116C9.99888 18.7108 10.2468 18.8443 10.474 19.0087C10.6976 19.19 10.8582 19.4372 10.933 19.7151C11.0622 20.0549 11.1623 20.4052 11.2321 20.762Z" fill="#FFE5CC"/>
<path d="M8.47858 21.8398C8.15371 22.0202 8.44249 22.505 8.56109 22.7474C8.69812 23.0115 8.80038 23.2923 8.86534 23.5827C8.9298 23.8278 8.9298 24.0854 8.86534 24.3305C8.78167 24.4931 8.65032 24.6262 8.48889 24.7121C8.30962 24.825 8.11514 24.9119 7.91134 24.9699C7.21602 25.1781 6.47215 25.1572 5.78963 24.9102C5.10712 24.6632 4.52215 24.2032 4.12114 23.5982C3.93761 23.3908 3.83029 23.1271 3.81689 22.8505C3.87013 22.5003 3.95294 22.1553 4.06442 21.8191C4.25215 21.0611 4.57155 20.342 5.0081 19.6946C5.44366 19.0509 6.05363 18.5447 6.76655 18.2352C7.27962 17.979 7.85077 17.8613 8.42335 17.8939C8.99593 17.9264 9.55004 18.1081 10.0307 18.4208C10.2101 18.5474 10.3583 18.7132 10.4639 18.9056C10.7115 19.4213 10.4278 20.2205 10.2009 20.6795C10.0852 20.9468 9.90744 21.1825 9.68233 21.3673C9.45722 21.5521 9.19127 21.6804 8.90659 21.7418C8.75929 21.7492 8.61444 21.7824 8.47858 21.8398Z" fill="#733118"/>
<path d="M21.8447 24.2428C21.8295 24.213 21.8063 24.188 21.7777 24.1706C21.7625 24.1649 21.7458 24.165 21.7306 24.1706C21.7155 24.1763 21.7029 24.1873 21.6952 24.2016C21.7381 23.8269 21.7242 23.4479 21.6539 23.0774C21.6501 23.0287 21.6322 22.9821 21.6024 22.9433C21.5887 22.923 21.5682 22.9081 21.5445 22.9015C21.5209 22.8949 21.4957 22.8969 21.4734 22.9072C21.4373 22.9072 21.4219 22.9743 21.3806 22.9897C21.3488 23 21.3145 23 21.2826 22.9897C21.1589 22.9897 21.0712 23.1083 21.0093 23.2115C20.4909 24.1257 20.0791 25.0963 19.782 26.1044C19.7077 26.3576 19.6661 26.6193 19.6583 26.8831C19.6662 26.943 19.6662 27.0037 19.6583 27.0636C19.6482 27.1034 19.6326 27.1416 19.6119 27.177C19.5551 27.2905 16.4095 30.5083 16.1362 30.6887L16.0176 30.7661C15.5587 30.5392 15.0533 30.4051 14.584 30.1937C13.7062 29.6995 12.8893 29.1042 12.1501 28.4198C11.6799 28.0268 11.1486 27.7132 10.5773 27.4916C10.3049 27.3861 10.0179 27.3235 9.7264 27.3059C9.6376 27.3088 9.5505 27.331 9.47121 27.3711C9.39192 27.4112 9.32238 27.4681 9.26746 27.538C9.02629 27.7593 8.83321 28.0279 8.70022 28.327C8.53071 28.6682 8.4993 29.0616 8.61254 29.4253C8.7447 29.7667 8.95279 30.0735 9.22105 30.3226C9.58922 30.6468 9.99627 30.924 10.4329 31.1477C12.0809 32.0575 13.8309 32.7689 15.6463 33.2671C15.8498 33.3379 16.0668 33.3608 16.2806 33.3342C17.0335 33.1949 19.7253 29.4718 20.571 28.3218C20.9266 27.9882 21.2062 27.5819 21.3909 27.1306C21.4803 26.9055 21.5544 26.6747 21.6127 26.4396C21.7158 26.0786 21.8086 25.7177 21.8963 25.3567C21.9547 25.1712 21.9876 24.9786 21.9943 24.7843C21.9917 24.5939 21.9402 24.4075 21.8447 24.2428Z" fill="#FFE5CC"/>
<path d="M11.9233 31.8799C12.3065 31.4963 12.6519 31.0767 12.9547 30.6269C13.1712 30.2968 13.5528 29.6883 13.3466 29.2758C13.3156 29.2227 13.2755 29.1755 13.228 29.1366C12.4477 28.3868 11.5573 27.7607 10.5877 27.2801C10.4022 27.1825 10.2068 27.1048 10.005 27.0481C9.62874 26.9579 9.23647 26.9579 8.86021 27.0481C8.73323 27.0755 8.61023 27.1188 8.49408 27.177C7.80824 27.5741 7.80307 28.6621 8.00419 29.3222C8.2676 30.0833 8.79432 30.7252 9.48933 31.1322C10.1825 31.5353 10.9451 31.8047 11.7377 31.9263H11.8099C11.8309 31.9267 11.8519 31.9228 11.8714 31.9149C11.8909 31.9069 11.9086 31.895 11.9233 31.8799Z" fill="#4D4D4D"/>
</svg>
