<svg width="85" height="85" viewBox="0 0 85 85" fill="none" xmlns="http://www.w3.org/2000/svg">
<g id="Rlogo">
<g id="Group 113">
<path id="Vector" d="M28.7554 64.6394H64.1302V73.457H20V11.9468C20.3909 11.8808 20.7854 11.8382 21.1815 11.8194C28.2449 11.8194 35.3083 11.657 42.3717 11.848C53.214 12.141 61.8186 19.5225 63.883 30.0757C64.1472 31.5854 64.2686 33.1163 64.2458 34.6485C64.2843 41.0683 64.2618 47.4913 64.2618 53.911V55.7453H55.2721V33.9002C55.2822 32.1698 54.9469 30.4546 54.2853 28.8534C53.6237 27.2523 52.6491 25.7969 51.4175 24.5713C50.186 23.3457 48.7219 22.374 47.1099 21.7125C45.4978 21.0509 43.7696 20.7124 42.025 20.7167H28.7554V64.6394Z" fill="white"/>
<path id="Vector_2" opacity="0.91" d="M46.3175 55.7452H37.7002V29.5693C40.2687 29.7795 43.0555 28.614 45.1906 30.9513C45.7557 31.5627 46.2598 32.5053 46.2694 33.3014C46.3497 40.7148 46.3175 48.1313 46.3175 55.7452Z" fill="#FC9318"/>
</g>
</g>
</svg>
